<?xml version="1.0" standalone="no"?>
<!DOCTYPE svg PUBLIC "-//W3C//DTD SVG 20010904//EN"
 "http://www.w3.org/TR/2001/REC-SVG-20010904/DTD/svg10.dtd">
<svg version="1.0" xmlns="http://www.w3.org/2000/svg"
 width="1024.000000pt" height="1024.000000pt" viewBox="0 0 1024.000000 1024.000000"
 preserveAspectRatio="xMidYMid meet">
<metadata>
Created by potrace 1.14, written by Peter Selinger 2001-2017
</metadata>
<g transform="translate(0.000000,1024.000000) scale(0.100000,-0.100000)"
fill="#000000" stroke="none">
<path d="M7360 10082 c0 -4 -30 -7 -68 -7 -37 1 -74 -2 -82 -6 -8 -4 -51 -9
-95 -13 -44 -3 -94 -10 -112 -15 -17 -5 -34 -7 -37 -3 -3 3 -6 1 -6 -5 0 -6
-11 -8 -25 -5 -15 2 -25 0 -25 -7 0 -7 -4 -9 -10 -6 -13 8 -81 -5 -75 -15 3
-5 -5 -6 -17 -2 -16 4 -19 2 -13 -9 6 -11 5 -11 -4 -3 -14 13 -51 7 -51 -7 0
-5 -6 -6 -13 -3 -17 6 -261 -64 -265 -77 -2 -5 -8 -7 -13 -3 -13 8 -50 -6 -44
-17 3 -5 -1 -6 -9 -3 -13 5 -55 -8 -188 -58 -15 -6 -25 -15 -21 -21 4 -6 1 -7
-6 -3 -15 10 -73 -13 -65 -25 3 -5 -1 -6 -9 -4 -7 3 -43 -8 -80 -26 -64 -30
-86 -44 -49 -33 16 5 16 5 -1 -6 -9 -6 -22 -8 -27 -5 -13 8 -171 -65 -165 -75
3 -4 -20 -7 -51 -5 -38 2 -52 -1 -42 -7 10 -7 8 -8 -5 -4 -10 3 -24 6 -30 6
-7 0 -6 5 3 11 12 9 11 10 -7 6 -13 -3 -23 -2 -23 3 0 4 -26 10 -57 13 -32 2
-116 12 -188 21 -71 9 -157 19 -190 22 -85 10 -673 11 -775 1 -47 -4 -107 -10
-135 -12 -27 -3 -61 -8 -75 -11 -14 -3 -47 -7 -75 -9 -27 -2 -61 -6 -75 -9
-14 -3 -41 -8 -60 -10 -19 -3 -80 -15 -135 -26 -55 -12 -111 -24 -125 -26 -14
-3 -34 -8 -45 -11 -11 -4 -25 -8 -31 -9 -11 -2 -135 -39 -249 -74 -33 -10 -85
-28 -115 -40 -30 -12 -66 -25 -80 -30 -178 -59 -713 -333 -693 -355 5 -4 2 -5
-5 -1 -7 5 -21 2 -30 -6 -9 -8 -38 -27 -65 -42 -28 -16 -45 -32 -41 -38 4 -7
2 -8 -5 -4 -20 13 -387 -256 -375 -275 3 -5 -1 -6 -9 -3 -14 5 -32 -11 -32
-30 0 -5 -8 -10 -18 -12 -9 -1 -29 -13 -45 -26 -80 -70 -111 -102 -105 -111 3
-6 1 -7 -4 -4 -13 8 -45 -27 -36 -39 5 -5 4 -6 -1 -2 -11 10 -38 -11 -30 -23
3 -5 0 -8 -8 -7 -7 2 -12 -3 -10 -10 1 -8 -1 -11 -6 -8 -12 7 -74 -58 -65 -69
5 -4 3 -5 -3 -2 -14 8 -137 -120 -129 -133 4 -6 1 -9 -7 -8 -7 2 -12 -3 -10
-10 1 -8 -1 -11 -6 -8 -13 8 -55 -40 -47 -54 4 -6 1 -9 -7 -8 -7 2 -12 -3 -10
-10 1 -8 -2 -11 -7 -8 -12 8 -53 -49 -43 -59 4 -5 2 -5 -4 -2 -15 9 -38 -19
-28 -34 4 -7 3 -9 -4 -5 -13 8 -55 -48 -44 -59 4 -5 2 -5 -5 -2 -11 7 -60 -60
-55 -76 1 -5 -2 -6 -7 -3 -12 8 -44 -41 -36 -55 4 -5 3 -8 -2 -7 -4 2 -9 0
-11 -4 -1 -4 -16 -22 -32 -40 -17 -18 -28 -39 -25 -46 3 -7 1 -10 -5 -7 -11 7
-32 -29 -22 -40 4 -5 2 -5 -4 -2 -15 9 -108 -138 -98 -154 4 -8 3 -9 -5 -5 -7
5 -15 -4 -22 -23 -6 -17 -14 -31 -18 -31 -12 0 -32 -50 -25 -62 5 -7 2 -8 -6
-3 -10 6 -12 4 -7 -9 5 -11 3 -15 -5 -10 -8 5 -9 2 -5 -10 4 -10 3 -15 -3 -11
-11 7 -64 -81 -56 -94 3 -5 -1 -12 -10 -15 -9 -4 -14 -13 -10 -22 3 -8 2 -13
-3 -10 -11 7 -23 -22 -14 -36 4 -7 1 -8 -7 -3 -10 6 -12 4 -7 -9 4 -9 3 -15
-1 -12 -12 7 -54 -83 -46 -96 4 -6 2 -8 -3 -5 -13 8 -26 -20 -16 -35 4 -7 1
-8 -7 -3 -10 6 -12 4 -7 -9 4 -9 3 -15 -2 -12 -10 7 -33 -49 -24 -58 4 -3 1
-6 -6 -6 -7 0 -9 -4 -6 -10 3 -5 1 -10 -6 -10 -7 0 -10 -3 -6 -6 3 -4 -1 -13
-9 -22 -9 -8 -13 -23 -11 -34 3 -10 1 -16 -4 -12 -9 5 -11 0 -13 -28 -1 -7 -7
-19 -14 -27 -8 -8 -11 -22 -9 -33 3 -10 2 -16 -3 -13 -10 6 -22 -24 -14 -36 3
-5 0 -9 -6 -9 -6 0 -8 -4 -5 -10 3 -5 1 -10 -6 -10 -6 0 -9 -8 -6 -20 3 -11 1
-18 -4 -14 -9 5 -11 0 -13 -28 -1 -7 -4 -15 -8 -18 -4 -3 -9 -17 -10 -30 -2
-14 -7 -28 -11 -31 -5 -4 -10 -18 -10 -33 -1 -14 -6 -26 -11 -26 -4 0 -6 -9
-3 -20 3 -11 2 -18 -3 -15 -10 6 -23 -42 -15 -55 4 -6 1 -10 -6 -10 -6 0 -9
-8 -6 -20 3 -12 1 -18 -5 -14 -7 5 -9 -2 -6 -20 3 -14 1 -26 -5 -26 -5 0 -7
-9 -4 -20 3 -13 1 -18 -6 -13 -6 4 -8 0 -4 -10 4 -10 2 -17 -4 -17 -6 0 -9 -9
-6 -20 3 -11 1 -20 -5 -20 -6 0 -8 -9 -5 -20 3 -11 1 -20 -4 -20 -5 0 -9 -8
-9 -17 0 -15 2 -16 10 -3 6 9 10 10 10 3 0 -7 -6 -16 -14 -20 -16 -9 -41 -107
-32 -128 3 -8 2 -15 -3 -15 -5 0 -11 -11 -13 -25 -3 -14 -1 -25 6 -25 6 0 5
-4 -3 -9 -8 -5 -11 -16 -8 -25 4 -9 1 -16 -6 -16 -8 0 -6 -4 3 -10 12 -8 12
-10 1 -10 -8 0 -11 -7 -8 -20 3 -11 1 -20 -5 -20 -6 0 -8 -13 -6 -30 3 -16 1
-30 -3 -30 -4 0 -9 -13 -11 -30 -3 -17 0 -30 6 -30 6 0 5 -4 -2 -9 -9 -6 -12
-21 -9 -45 3 -20 1 -33 -4 -30 -5 3 -9 -16 -9 -41 0 -26 -5 -55 -10 -66 -7
-11 -7 -19 -1 -19 5 0 11 6 14 13 2 6 4 -1 4 -17 0 -17 -2 -23 -7 -16 -6 9 -9
8 -12 -6 -3 -10 2 -27 10 -36 10 -12 11 -18 4 -18 -7 0 -13 6 -14 13 -1 6 -4
-13 -7 -43 -4 -31 -2 -61 4 -69 7 -11 7 -13 -2 -8 -14 9 -23 -139 -10 -152 5
-5 4 -18 -2 -29 -14 -27 -15 -374 -1 -352 7 10 8 1 5 -30 -8 -67 8 -176 25
-172 11 3 11 0 1 -11 -9 -12 -9 -16 1 -20 10 -4 10 -6 1 -6 -18 -1 -16 -47 3
-65 8 -9 11 -16 5 -16 -6 0 -11 -12 -11 -26 0 -14 4 -23 10 -19 5 3 7 13 4 23
-5 14 -4 14 4 3 7 -10 7 -21 1 -32 -6 -11 -5 -20 1 -24 5 -3 10 -14 9 -23 0
-14 -2 -13 -9 3 -8 19 -9 19 -9 1 -1 -10 7 -25 16 -33 10 -8 12 -12 6 -8 -9 4
-13 -1 -13 -14 0 -12 6 -21 13 -21 9 0 9 -2 -1 -9 -11 -7 -11 -9 2 -14 9 -4
16 -14 15 -24 0 -16 -2 -16 -10 2 -7 16 -8 12 -4 -14 3 -18 5 -45 6 -60 0 -22
1 -23 8 -6 5 12 8 -5 8 -44 0 -34 4 -66 9 -69 5 -4 10 -27 11 -52 1 -25 6 -46
12 -48 5 -2 7 -13 4 -25 -4 -18 -3 -19 7 -7 9 12 10 8 5 -19 -5 -23 -4 -31 4
-27 6 4 11 2 11 -3 0 -6 -4 -11 -9 -11 -5 0 -4 -15 2 -35 6 -19 15 -35 21 -35
6 0 5 -4 -2 -9 -12 -7 -12 -11 1 -22 7 -7 12 -21 9 -31 -2 -10 0 -18 6 -18 6
0 8 -9 5 -20 -3 -12 0 -20 6 -20 7 0 9 -5 6 -10 -9 -15 15 -83 34 -97 13 -10
14 -14 3 -22 -12 -7 -12 -11 1 -22 7 -7 12 -21 10 -30 -3 -9 2 -22 10 -30 7
-8 12 -20 9 -28 -3 -8 0 -11 6 -7 6 3 8 -1 5 -12 -2 -11 2 -26 11 -34 8 -9 13
-18 10 -21 -3 -3 -3 -15 1 -28 6 -17 9 -19 17 -8 7 10 8 7 5 -11 -6 -27 25
-115 35 -104 4 3 4 -3 2 -14 -3 -10 2 -26 11 -36 9 -9 13 -16 9 -16 -4 0 0 -6
11 -13 10 -8 15 -19 11 -25 -3 -6 1 -29 10 -52 13 -31 19 -38 26 -28 7 10 8 9
4 -4 -7 -22 3 -50 15 -42 5 3 6 -3 2 -12 -4 -12 -3 -15 5 -10 8 5 10 1 5 -10
-4 -12 -3 -15 5 -10 8 4 10 2 6 -7 -3 -8 2 -22 11 -31 9 -9 13 -16 9 -16 -4 0
0 -6 11 -13 10 -8 15 -19 11 -25 -4 -8 0 -12 11 -12 15 0 16 -2 3 -10 -11 -7
-11 -10 -2 -10 7 0 11 -4 8 -9 -3 -5 1 -12 10 -15 9 -3 14 -12 11 -19 -2 -6 3
-18 12 -25 9 -8 10 -11 3 -7 -10 5 -10 1 -1 -19 7 -14 16 -23 22 -19 6 3 7 1
3 -5 -9 -15 22 -75 34 -67 6 3 7 -1 4 -9 -4 -9 1 -18 10 -22 9 -3 13 -10 10
-15 -3 -5 0 -9 7 -9 7 0 9 -3 6 -6 -9 -10 12 -46 23 -39 6 3 7 0 5 -7 -3 -8 2
-22 11 -33 8 -11 13 -15 10 -9 -3 6 1 11 9 11 10 0 11 -5 4 -19 -8 -14 -5 -24
13 -42 13 -13 24 -29 26 -35 5 -24 45 -70 55 -64 6 3 7 1 3 -6 -10 -15 13 -43
27 -34 5 3 7 2 4 -4 -7 -12 29 -73 43 -73 6 0 9 -4 5 -9 -3 -5 8 -19 25 -31
16 -12 30 -16 30 -10 0 6 5 8 11 4 8 -4 7 -9 -2 -15 -8 -4 -19 -3 -28 4 -12
10 -13 9 -3 -8 13 -23 67 -87 56 -66 -4 9 -3 12 4 7 6 -4 9 -12 7 -19 -2 -7
16 -34 42 -62 25 -27 40 -41 32 -30 -13 18 -12 19 3 7 9 -8 15 -19 12 -25 -4
-12 157 -199 179 -206 9 -3 8 0 -1 11 -9 11 -10 18 -2 23 6 4 9 1 8 -7 -2 -7
2 -12 8 -11 6 1 11 -4 11 -12 0 -8 -4 -12 -9 -9 -4 3 -8 1 -8 -4 0 -5 46 -53
101 -108 56 -54 113 -111 127 -126 25 -28 46 -29 35 -2 -3 8 -12 13 -20 10 -9
-4 -13 0 -11 12 2 9 -3 16 -10 14 -6 -1 -12 2 -12 6 0 5 -7 17 -15 28 -15 19
-15 19 -8 -1 6 -18 5 -19 -11 -5 -11 8 -14 16 -7 18 20 7 12 21 -9 17 -13 -3
-18 0 -14 7 5 7 2 8 -6 3 -9 -5 -11 -4 -6 4 6 8 12 9 20 2 9 -7 16 -7 25 2 7
6 12 8 11 2 -5 -23 1 -36 12 -29 6 4 8 3 4 -4 -9 -15 33 -52 50 -45 11 4 12 9
3 19 -6 8 -7 14 -2 14 5 0 15 -9 23 -20 19 -26 40 -26 40 1 0 11 4 17 10 14 6
-4 17 -1 25 5 18 15 20 34 3 24 -7 -4 -8 -3 -4 4 4 6 13 9 20 6 7 -3 16 2 19
10 10 26 25 18 46 -22 13 -25 16 -43 10 -53 -14 -22 -11 -35 4 -15 12 17 16
15 50 -32 20 -27 55 -66 77 -86 42 -38 57 -63 17 -30 l-22 19 23 -26 c12 -14
21 -27 20 -30 -2 -2 2 1 8 8 9 11 14 10 25 -4 8 -9 9 -14 3 -10 -6 3 -11 0
-11 -8 0 -10 5 -11 17 -5 13 7 24 4 39 -9 12 -11 44 -34 71 -53 27 -18 50 -40
50 -48 0 -10 3 -11 8 -3 9 14 89 -31 84 -48 -1 -6 2 -8 7 -4 16 9 113 -44 105
-57 -5 -7 -2 -9 9 -5 16 6 132 -35 123 -44 -5 -5 11 -6 154 -10 88 -2 114 1
159 19 30 12 58 19 63 16 5 -3 7 0 6 7 -2 6 3 14 11 17 9 3 11 0 6 -9 -4 -8
18 11 49 43 31 31 56 62 56 70 0 7 -8 0 -19 -17 -10 -16 -34 -43 -52 -60 -33
-29 -33 -28 3 10 20 22 51 69 67 105 30 65 41 77 20 23 -5 -15 -6 -23 -1 -18
14 14 35 85 28 92 -3 4 -6 -1 -6 -10 0 -10 -5 -17 -10 -17 -7 0 -7 7 1 21 6
12 9 32 6 45 -2 13 0 21 4 18 5 -3 9 -14 9 -25 0 -11 5 -17 10 -14 6 3 10 1
10 -5 0 -6 4 -8 10 -5 5 3 10 2 10 -2 0 -5 14 -14 31 -20 17 -7 28 -16 25 -22
-4 -5 -1 -13 5 -17 8 -5 9 -3 4 6 -5 8 -3 11 6 8 8 -3 13 -11 11 -17 -1 -7 2
-10 8 -6 13 8 52 -19 42 -30 -4 -5 -1 -5 5 -1 16 9 56 -12 48 -24 -3 -6 1 -7
9 -4 11 4 19 -2 26 -20 5 -14 15 -26 22 -25 10 0 10 2 1 6 -7 2 -13 9 -13 14
0 5 14 2 30 -6 17 -9 28 -20 25 -25 -3 -6 0 -7 8 -4 8 3 18 0 23 -7 4 -8 3
-10 -4 -5 -7 4 -12 5 -12 2 0 -3 10 -10 21 -17 16 -8 20 -8 14 1 -4 6 12 2 34
-10 23 -11 39 -25 36 -30 -4 -6 1 -7 11 -3 12 4 15 3 10 -5 -4 -8 -2 -10 8 -6
18 7 57 -13 53 -28 -1 -6 5 -13 13 -15 13 -4 13 -3 0 6 -20 14 -7 14 24 0 14
-7 23 -16 19 -22 -3 -6 -2 -8 3 -4 16 9 76 -21 68 -35 -5 -8 -2 -9 9 -5 10 3
17 2 17 -3 0 -6 4 -9 8 -8 16 5 131 -55 125 -65 -4 -6 0 -8 10 -4 22 8 49 -2
40 -16 -3 -6 -1 -7 6 -3 12 8 223 -80 229 -95 2 -4 10 -5 19 -2 11 4 14 2 9
-5 -5 -8 -2 -10 8 -6 9 3 16 1 16 -6 0 -6 4 -9 9 -6 5 4 51 -8 103 -25 51 -17
100 -32 109 -34 9 -2 47 -12 85 -23 65 -19 113 -31 124 -31 3 0 28 -7 55 -15
28 -8 79 -20 115 -26 36 -7 76 -14 90 -17 58 -10 130 -35 130 -45 0 -6 9 -8
20 -5 11 3 18 1 15 -3 -3 -5 5 -12 17 -15 13 -4 51 -20 86 -36 34 -16 67 -29
72 -29 6 0 10 -6 10 -12 0 -10 2 -10 9 0 6 11 10 10 15 -3 4 -11 13 -15 26
-12 11 3 20 2 20 -2 0 -3 10 -12 21 -20 19 -11 21 -11 16 4 -4 9 -3 14 3 10 6
-3 10 -12 10 -18 0 -7 34 -26 75 -42 41 -17 75 -33 75 -37 0 -4 12 -3 26 2 14
6 23 6 19 1 -3 -5 8 -12 25 -16 16 -4 30 -10 30 -15 0 -4 11 -7 25 -6 13 2 22
-1 19 -6 -8 -12 29 -6 38 7 5 6 8 6 8 -1 0 -6 13 -9 31 -6 17 3 26 7 21 11 -6
3 13 7 41 7 47 1 80 5 142 18 11 3 24 5 28 5 5 1 5 7 1 14 -5 9 -4 9 5 1 12
-11 61 -7 61 5 0 3 17 7 37 8 21 1 39 6 41 11 2 6 11 8 21 5 10 -2 25 3 34 11
11 12 17 13 20 3 4 -9 6 -9 6 1 1 7 5 11 11 7 15 -9 61 6 53 18 -4 6 -1 7 7 2
14 -8 130 25 130 38 0 5 5 5 10 2 13 -8 52 4 45 15 -3 4 2 11 11 14 8 3 12 2
9 -4 -3 -6 3 -10 15 -10 11 0 23 6 26 14 3 8 13 13 22 11 21 -3 62 15 62 27 0
5 4 7 9 4 12 -8 71 14 71 26 0 5 5 6 10 3 6 -3 10 -2 10 3 0 6 9 8 20 5 12 -3
20 0 20 6 0 7 5 9 10 6 6 -3 10 -1 10 5 0 6 5 8 10 5 6 -3 10 -1 10 5 0 6 5 8
10 5 6 -3 10 -1 10 5 0 6 5 8 10 5 6 -3 10 0 10 7 0 9 3 9 10 -2 8 -12 10 -12
10 5 0 15 3 16 9 7 7 -11 11 -11 23 2 9 8 18 12 22 9 3 -4 6 -1 6 5 0 6 6 9
14 6 8 -3 23 3 34 14 11 11 23 18 26 15 3 -4 6 -1 6 6 0 7 5 9 10 6 6 -3 10 0
10 7 0 9 3 9 10 -2 6 -10 10 -11 10 -2 0 6 6 11 13 10 6 -2 11 2 10 8 -1 7 6
10 17 7 12 -3 23 2 31 15 7 12 19 18 27 14 11 -4 13 -1 7 8 -5 9 -4 11 3 6 12
-7 72 23 72 36 0 4 7 5 15 2 8 -4 17 1 21 10 3 9 10 13 15 10 5 -3 9 3 9 13 0
15 2 16 10 3 6 -10 10 -11 10 -2 0 6 3 11 8 10 4 -1 18 2 30 6 17 6 22 13 19
28 -4 16 -3 17 9 7 11 -9 14 -9 14 0 0 7 5 9 10 6 6 -3 10 -1 10 4 0 6 3 10 8
10 18 -3 32 2 32 12 0 5 -5 7 -12 3 -7 -4 -8 -3 -4 4 4 6 13 9 21 5 8 -3 15 0
15 7 0 6 4 9 8 6 12 -7 72 31 72 46 0 6 3 8 6 5 10 -10 45 13 39 24 -4 5 -3 8
2 7 4 -1 19 2 31 6 17 6 22 13 19 28 -5 16 -3 17 11 6 14 -11 15 -10 9 12 -5
23 -5 23 8 7 12 -17 14 -17 29 5 9 12 16 19 16 15 0 -4 11 0 25 9 14 9 25 24
25 33 0 14 2 14 10 1 8 -13 10 -12 10 3 0 9 6 16 13 15 6 -2 11 2 10 9 -2 7 4
10 13 6 10 -4 17 2 21 17 4 16 8 18 14 8 7 -10 9 -9 9 5 0 10 4 16 8 13 5 -3
14 4 22 14 8 10 17 17 22 14 4 -3 8 2 8 10 0 9 3 15 8 15 20 -3 32 3 32 17 0
8 5 12 10 9 6 -3 11 1 11 9 1 16 4 28 9 44 1 4 2 9 2 12 0 3 9 7 21 7 20 2 20
1 4 -8 -9 -6 -14 -15 -11 -21 4 -6 3 -8 -3 -5 -5 3 -10 -1 -10 -10 0 -13 3
-13 16 3 15 19 23 24 36 24 3 0 1 9 -4 19 -9 16 -4 25 30 55 34 31 59 39 59
20 0 -3 -4 -3 -9 1 -15 9 -84 -56 -72 -68 12 -12 31 0 31 21 0 15 2 15 10 2 9
-13 10 -13 11 0 1 8 1 19 0 23 -1 5 3 6 7 3 13 -8 83 54 75 67 -3 5 -1 7 4 4
6 -4 17 0 24 9 7 8 8 14 2 12 -16 -4 -16 3 -2 37 7 17 12 37 11 45 -1 10 0 11
4 2 3 -6 11 -9 17 -5 7 3 9 3 5 -2 -4 -4 -3 -14 2 -20 7 -9 5 -17 -7 -26 -9
-8 -14 -9 -10 -2 4 6 3 14 -2 17 -5 3 -11 -3 -14 -14 -8 -31 15 -24 54 17 18
20 29 33 23 30 -6 -3 -11 0 -11 7 0 8 8 12 21 9 17 -4 18 -3 6 6 -12 9 -11 11
8 11 13 0 20 4 17 10 -3 6 1 10 10 10 9 0 13 5 10 10 -3 6 2 10 12 10 15 0 16
2 3 10 -13 8 -13 10 -1 10 22 0 71 51 71 74 0 19 -1 18 -25 -4 -13 -12 -22
-28 -18 -34 3 -6 2 -8 -2 -3 -5 4 -18 -1 -29 -10 -12 -10 -1 4 24 30 41 44 46
46 58 30 13 -17 13 -17 10 2 -2 11 -7 23 -11 26 -4 3 0 12 9 20 11 9 15 9 10
2 -4 -7 -3 -21 3 -30 8 -14 10 -10 7 19 -1 20 1 35 5 32 4 -2 10 3 13 12 9 22
8 26 -6 18 -7 -4 -8 -3 -4 5 4 6 11 9 16 6 11 -7 22 24 13 37 -3 6 -1 8 4 5 6
-4 14 0 17 9 3 8 2 13 -3 10 -5 -3 -14 1 -20 8 -9 10 -9 16 -1 21 6 4 9 13 6
21 -4 12 -2 12 14 4 11 -6 17 -17 14 -25 -8 -19 11 -52 20 -36 4 6 2 11 -3 11
-6 0 -11 5 -11 11 0 8 6 7 17 -2 9 -8 18 -12 20 -11 3 2 7 1 9 -2 2 -3 1 -4
-3 -1 -9 7 -34 -15 -28 -25 3 -4 -2 -7 -10 -6 -7 0 -14 -3 -15 -9 -1 -5 -8
-14 -16 -18 -8 -4 -14 -13 -14 -18 0 -6 7 -3 16 5 8 9 19 14 23 11 10 -6 64
58 67 80 2 11 -1 13 -9 7 -20 -14 -39 -8 -48 16 -6 17 -5 21 3 16 8 -5 9 -2 5
10 -4 9 -3 14 2 11 5 -3 12 4 16 15 4 11 11 17 17 14 6 -4 5 2 -2 15 -6 12 -8
30 -5 41 3 10 2 21 -3 24 -13 8 -37 -22 -37 -46 0 -17 -14 -27 -16 -10 0 4 -5
12 -10 19 -7 7 -6 14 1 18 5 3 10 3 10 -1 0 -5 19 10 42 31 23 22 36 33 30 23
-9 -10 -9 -18 -3 -22 7 -5 6 -15 -1 -32 -7 -15 -8 -28 -2 -34 5 -5 10 1 11 16
6 63 7 64 22 51 10 -8 13 -8 8 -1 -9 15 21 87 33 79 13 -8 3 36 -11 49 -8 8
-8 4 0 -14 11 -23 11 -23 -2 -7 -9 11 -18 14 -21 8 -4 -5 -2 -13 4 -16 9 -6 5
-42 -6 -54 -9 -10 -32 22 -27 37 6 15 5 16 -13 2 -13 -11 -11 -5 7 20 15 19
30 34 35 33 5 -1 15 4 23 10 12 9 13 9 7 0 -4 -7 -3 -13 2 -13 6 0 12 6 15 14
7 19 -17 28 -34 13 -11 -10 -11 -9 0 5 7 10 19 14 28 11 11 -4 14 -2 9 5 -4 7
-2 12 6 12 9 0 9 3 -2 10 -13 8 -13 10 2 10 10 0 15 6 13 13 -3 6 7 26 21 42
14 17 22 23 18 15 -7 -13 -5 -13 9 -1 19 15 23 26 6 15 -7 -4 -10 -1 -7 7 3 8
11 13 17 11 7 -1 10 2 6 7 -5 9 61 121 72 121 2 0 1 -5 -3 -12 -4 -7 -3 -8 4
-4 6 4 8 14 5 23 -5 12 -3 14 7 8 8 -5 11 -4 6 3 -8 13 33 84 45 76 5 -3 6 3
2 12 -4 12 -3 15 5 10 8 -5 10 -1 5 10 -4 12 -3 15 5 10 7 -4 10 -2 7 6 -3 8
2 22 11 33 8 11 13 14 9 8 -11 -22 4 -14 16 8 8 16 8 20 -1 14 -6 -4 14 43 45
104 51 102 73 137 59 94 -5 -15 -4 -15 4 -3 6 8 8 18 5 23 -7 12 58 148 68
141 4 -2 11 1 15 7 4 8 3 9 -4 5 -16 -10 -15 9 1 26 6 7 12 19 13 26 2 29 5
33 14 27 6 -4 7 1 3 11 -4 12 -3 15 5 10 8 -4 10 -2 6 8 -3 8 -1 23 6 33 9 16
10 15 5 -7 -5 -22 -4 -23 5 -7 7 10 9 25 6 32 -3 8 1 21 9 29 10 10 11 16 4
18 -8 3 -6 9 4 20 9 8 13 18 10 22 -4 3 -2 6 3 6 5 0 10 12 11 27 0 15 6 29
11 31 5 1 8 12 5 22 -4 15 0 20 13 20 16 0 17 2 4 10 -11 7 -11 10 -2 10 7 0
10 5 7 10 -3 6 -2 10 4 10 6 0 8 7 4 16 -4 10 0 20 10 26 10 5 17 14 17 21 0
8 -4 6 -11 -3 -9 -12 -10 -12 -5 3 3 10 6 21 6 23 0 3 6 2 13 -2 9 -6 9 -4 -1
8 -11 14 -9 20 10 38 15 14 19 23 12 28 -7 4 -8 15 -3 27 7 19 8 19 8 1 1 -11
4 -16 9 -12 10 11 9 30 -1 37 -5 4 -6 17 -2 29 5 15 10 19 15 10 5 -8 9 -8 13
4 4 9 2 16 -3 16 -6 0 -10 7 -10 15 0 8 5 15 11 15 5 0 7 5 4 10 -3 6 0 10 7
10 9 0 9 3 -2 10 -9 6 -10 10 -3 10 6 0 10 9 8 20 -2 11 0 20 4 20 4 0 7 10 6
22 -2 32 16 88 29 88 6 0 4 5 -4 10 -11 7 -11 10 -2 10 7 0 10 5 7 10 -3 6 -1
10 4 10 6 0 11 5 11 11 0 5 -6 7 -12 3 -10 -6 -10 -4 -2 7 6 8 10 22 9 32 -2
9 2 17 8 17 7 0 5 5 -3 10 -12 8 -12 10 5 10 15 0 17 2 6 9 -11 7 -11 9 0 14
11 4 11 6 0 6 -11 1 -10 5 5 17 10 8 13 13 7 9 -9 -4 -13 2 -13 17 0 18 2 20
10 8 6 -9 10 -10 10 -3 0 6 -4 14 -10 18 -5 3 -7 12 -4 20 4 8 9 13 13 10 4
-2 8 2 8 10 0 8 -5 11 -10 8 -6 -4 -8 1 -4 11 4 10 7 23 7 29 0 7 4 6 10 -3 6
-9 10 -10 10 -3 0 6 -4 14 -9 17 -4 3 -6 17 -4 31 3 15 10 22 17 18 6 -4 6 0
-2 9 -10 13 -10 19 3 32 12 12 13 16 3 16 -10 0 -10 2 1 9 11 7 11 9 0 14 -8
3 -9 6 -3 6 6 1 9 12 6 26 -6 36 6 77 21 68 9 -5 9 -3 0 8 -14 17 -6 149 8
149 5 0 6 6 3 13 -10 26 -9 617 1 617 6 0 4 4 -4 9 -10 7 -12 21 -7 55 6 35 4
46 -6 46 -9 0 -9 3 2 10 11 7 11 10 2 10 -7 0 -11 4 -7 9 3 5 1 12 -5 16 -5 3
-10 17 -10 31 0 18 4 23 13 18 9 -6 9 -5 0 8 -7 8 -10 18 -6 21 3 4 0 7 -8 7
-11 0 -11 2 1 10 12 8 12 10 1 10 -9 0 -10 4 -4 13 14 16 12 46 -1 41 -6 -2
-12 8 -13 23 0 16 -9 71 -19 123 -10 52 -18 118 -17 145 0 34 -2 42 -6 25 -6
-21 -9 -17 -19 30 -7 30 -15 64 -18 75 -4 11 -7 32 -8 48 0 15 -5 27 -10 27
-5 0 -1 10 10 22 10 12 14 18 7 15 -6 -4 -13 -4 -16 0 -2 5 -2 2 -1 -4 2 -7 0
-13 -5 -13 -5 0 -12 12 -15 28 -4 15 -9 36 -13 47 l-5 20 16 -20 c15 -19 15
-18 5 13 -9 25 -14 30 -20 20 -6 -8 -9 -9 -9 -1 0 6 -3 20 -6 30 -4 13 -3 14
4 5 7 -11 10 -11 15 2 4 9 2 16 -3 16 -6 0 -10 7 -10 15 0 12 4 11 20 -5 22
-22 26 -35 8 -24 -10 6 -10 5 -1 -8 7 -8 10 -18 6 -21 -10 -10 10 -8 27 3 12
8 12 10 -5 10 -11 0 -15 4 -10 8 6 4 10 24 10 45 0 20 -4 37 -10 37 -5 0 -3 4
5 10 10 6 14 26 14 64 0 30 3 51 7 45 3 -6 9 -1 12 10 3 12 1 21 -4 21 -5 0
-9 8 -9 18 0 15 2 15 11 2 8 -12 10 -9 6 13 -2 15 0 27 6 27 5 0 7 13 5 29 -2
17 -1 28 4 25 4 -3 8 4 8 15 0 10 3 27 7 37 5 12 3 15 -6 9 -10 -6 -11 -3 -2
14 7 12 16 61 22 109 5 48 12 98 14 112 16 92 27 603 15 707 -3 29 -10 43 -20
43 -12 0 -13 2 -1 9 13 9 12 32 -4 76 -6 17 -5 18 5 5 10 -12 11 -10 5 10 -6
26 -14 83 -15 113 -1 9 -5 17 -10 17 -5 0 -7 11 -4 25 3 16 0 25 -8 25 -10 0
-10 2 0 9 11 7 11 11 -2 24 -12 11 -13 17 -3 20 8 4 8 6 0 6 -6 1 -9 10 -6 21
3 11 1 20 -5 20 -6 0 -8 10 -4 22 3 14 2 19 -6 14 -7 -4 -12 -2 -12 3 0 6 5
11 12 11 6 0 3 7 -8 16 -12 10 -15 17 -7 20 14 6 0 64 -19 76 -9 5 -9 8 -1 8
6 0 9 9 6 20 -3 11 -9 18 -13 15 -5 -3 -6 5 -2 17 3 15 2 19 -7 14 -8 -6 -10
-1 -6 17 4 16 1 30 -8 38 -8 7 -12 21 -10 30 3 9 -2 22 -10 30 -7 8 -12 20 -9
28 3 9 0 11 -8 6 -9 -5 -11 -4 -6 4 9 15 -3 53 -15 46 -5 -3 -6 1 -3 9 3 9 1
16 -6 16 -6 0 -9 4 -6 9 4 5 0 12 -6 14 -10 4 -10 6 -1 6 15 1 -15 71 -29 71
-5 0 -6 5 -3 10 3 6 1 10 -5 10 -6 0 -8 5 -5 10 3 6 1 10 -5 10 -6 0 -8 5 -5
10 3 6 1 10 -5 10 -6 0 -8 5 -5 10 3 6 2 10 -4 10 -6 0 -7 7 -4 17 4 11 3 14
-5 9 -8 -5 -10 -2 -6 8 4 10 -5 26 -25 43 -17 15 -31 32 -31 37 0 5 7 1 15
-10 14 -17 14 -15 0 14 -8 17 -18 32 -21 32 -3 0 -2 -5 2 -12 4 -7 3 -8 -5 -4
-6 4 -9 12 -5 17 8 14 -36 80 -48 73 -7 -5 -8 -2 -3 6 5 7 -2 20 -17 34 -13
11 -17 17 -9 11 12 -9 12 -7 2 13 -7 12 -17 20 -23 16 -7 -4 -8 -2 -4 5 10 15
-13 43 -27 34 -6 -3 -7 -1 -3 5 9 15 -62 112 -82 113 -12 0 -13 2 -4 6 10 4 9
9 -4 24 -9 10 -21 16 -27 12 -6 -4 -7 -1 -3 6 9 14 -20 51 -40 51 -7 0 -11 6
-8 13 6 17 -235 259 -252 253 -7 -3 -18 3 -26 12 -12 15 -11 16 7 3 11 -7 -5
9 -35 37 -30 29 -60 50 -67 47 -7 -2 -15 1 -19 7 -5 7 -2 8 6 3 9 -6 11 -4 6
4 -5 7 -14 10 -22 7 -7 -3 -16 0 -20 6 -5 7 -2 8 7 4 8 -4 3 2 -10 14 -19 16
-26 18 -32 8 -7 -10 -9 -8 -9 5 0 21 -61 61 -70 46 -4 -6 -12 -3 -21 7 -12 15
-12 17 0 9 10 -5 12 -4 7 4 -14 22 -164 91 -169 78 -3 -6 -6 -3 -6 8 -1 17 -3
17 -11 5 -8 -12 -10 -12 -10 5 0 17 -2 17 -10 5 -8 -13 -10 -12 -10 4 0 13 -5
17 -20 13 -11 -3 -20 -1 -20 3 0 9 -61 32 -68 26 -2 -3 -11 2 -20 10 -8 9 -23
13 -34 11 -10 -3 -16 -2 -13 3 6 10 -43 23 -57 14 -6 -4 -8 -3 -5 3 9 15 -204
67 -233 58 -15 -5 -20 -4 -16 4 5 7 -2 11 -16 12 -13 1 -32 3 -43 5 -11 2 -72
6 -135 9 -63 3 -141 7 -172 10 -32 3 -58 1 -58 -3z m93 -19 c-7 -2 -21 -2 -30
0 -10 3 -4 5 12 5 17 0 24 -2 18 -5z m204 -9 c-3 -3 -12 -4 -19 -1 -8 3 -5 6
6 6 11 1 17 -2 13 -5z m-510 -10 c-3 -3 -12 -4 -19 -1 -8 3 -5 6 6 6 11 1 17
-2 13 -5z m1586 -433 c-2 -3 -16 8 -31 24 l-27 28 31 -24 c17 -13 30 -26 27
-28z m-2872 25 c5 3 9 0 9 -6 0 -15 -23 -7 -26 8 -1 7 0 8 3 2 2 -5 9 -8 14
-4z m-36 -6 c-3 -5 -12 -10 -18 -10 -7 0 -6 4 3 10 19 12 23 12 15 0z m182
-26 c-3 -3 -12 -4 -19 -1 -8 3 -5 6 6 6 11 1 17 -2 13 -5z m106 -21 c-7 -2
-21 -2 -30 0 -10 3 -4 5 12 5 17 0 24 -2 18 -5z m2789 -113 c4 -3 -1 -6 -12
-6 -10 0 -17 2 -15 5 9 8 -17 31 -29 24 -6 -3 -8 -3 -4 2 11 11 -12 36 -26 28
-6 -3 -8 -2 -3 2 4 5 -1 18 -10 29 -10 12 7 -1 37 -28 30 -27 58 -52 62 -56z
m-3205 84 c-3 -3 -12 -4 -19 -1 -8 3 -5 6 6 6 11 1 17 -2 13 -5z m668 -34 c3
-6 -1 -7 -9 -4 -18 7 -21 14 -7 14 6 0 13 -4 16 -10z m112 -36 c-6 -6 -47 9
-47 17 0 5 11 3 25 -3 14 -6 24 -13 22 -14z m40 10 c-3 -3 -12 -4 -19 -1 -8 3
-5 6 6 6 11 1 17 -2 13 -5z m30 -30 c-3 -3 -12 -4 -19 -1 -8 3 -5 6 6 6 11 1
17 -2 13 -5z m67 -16 c-3 -5 -3 -8 0 -8 2 0 12 -3 22 -7 11 -4 15 -3 11 4 -5
7 1 9 15 5 l22 -5 -22 -8 c-14 -6 -36 -2 -64 10 -42 18 -42 18 -11 17 17 0 29
-4 27 -8z m2317 -15 c13 -16 12 -17 -3 -4 -10 7 -18 15 -18 17 0 8 8 3 21 -13z
m-2191 -18 c0 -1 -8 -5 -18 -7 -11 -3 -19 0 -19 7 0 7 8 10 19 7 10 -2 18 -6
18 -7z m2226 -31 c1 -9 0 -13 -4 -10 -3 4 -7 14 -8 22 -1 9 0 13 4 10 3 -4 7
-14 8 -22z m-2156 -18 c-4 -4 -16 -4 -26 2 -16 9 -14 10 8 9 15 -1 23 -6 18
-11z m2199 -10 c19 -20 20 -24 6 -30 -10 -3 -14 -2 -10 5 4 6 -1 19 -11 30
-25 28 -12 24 15 -5z m-2139 -1 c0 -2 -6 -5 -13 -8 -8 -3 -14 1 -14 8 0 7 6
11 14 8 7 -3 13 -6 13 -8z m-565 -15 c3 -6 -1 -7 -9 -4 -18 7 -21 14 -7 14 6
0 13 -4 16 -10z m2674 -11 c-15 -9 -32 -2 -24 11 3 5 13 6 21 3 12 -4 13 -8 3
-14z m-1984 -49 c3 0 3 5 -1 12 -5 7 -3 8 5 3 8 -5 9 -11 3 -17 -9 -9 -72 15
-72 28 0 2 13 -2 30 -11 16 -8 32 -15 35 -15z m2055 10 c-12 -8 -12 -10 -1
-10 8 0 12 -3 8 -6 -9 -9 -28 6 -22 17 4 5 12 9 18 9 7 0 6 -4 -3 -10z m-1965
-39 c3 -5 2 -12 -3 -15 -5 -3 -9 1 -9 9 0 17 3 19 12 6z m2022 -17 c-3 -3 -12
-4 -19 -1 -8 3 -5 6 6 6 11 1 17 -2 13 -5z m-1980 -19 c0 -8 -4 -12 -9 -9 -5
3 -6 10 -3 15 9 13 12 11 12 -6z m-497 -31 c0 -2 -9 0 -20 6 -11 6 -20 13 -20
16 0 2 9 0 20 -6 11 -6 20 -13 20 -16z m602 -23 c-4 -10 -7 -11 -10 -3 -2 7
-8 10 -13 6 -5 -3 -9 -1 -9 5 0 5 9 9 19 8 12 -1 17 -6 13 -16z m1927 6 c8
-10 7 -14 -4 -14 -8 0 -12 4 -9 8 2 4 -2 10 -8 12 -8 4 -9 6 -2 6 6 1 17 -5
23 -12z m-1871 -52 c-3 -3 -9 2 -12 12 -6 14 -5 15 5 6 7 -7 10 -15 7 -18z
m1903 8 c13 -17 13 -17 -6 -3 -11 8 -22 16 -24 17 -2 2 0 3 6 3 6 0 17 -8 24
-17z m-1857 -29 c3 -8 2 -12 -4 -9 -6 3 -10 10 -10 16 0 14 7 11 14 -7z m136
-74 c0 -5 -5 -10 -11 -10 -5 0 -7 5 -4 10 3 6 8 10 11 10 2 0 4 -4 4 -10z
m111 -83 c-10 -9 -11 -8 -5 6 3 10 9 15 12 12 3 -3 0 -11 -7 -18z m1729 8 c7
-9 8 -15 2 -15 -5 0 -12 7 -16 15 -3 8 -4 15 -2 15 2 0 9 -7 16 -15z m-1643
-63 c0 -12 -3 -11 -12 2 -7 8 -15 13 -19 9 -4 -4 -4 0 -1 9 5 13 10 14 19 5 7
-6 13 -18 13 -25z m-507 -3 c17 -13 18 -17 5 -10 -33 17 -51 31 -40 31 6 0 21
-10 35 -21z m64 -48 c-2 -3 -12 3 -22 13 -16 17 -16 18 5 5 12 -7 20 -15 17
-18z m522 -7 c1 -9 0 -13 -4 -10 -3 4 -7 14 -8 22 -1 9 0 13 4 10 3 -4 7 -14
8 -22z m38 -12 c3 -5 -1 -9 -9 -9 -8 0 -12 4 -9 9 3 4 7 8 9 8 2 0 6 -4 9 -8z
m51 -44 c4 -3 2 -9 -3 -12 -5 -3 -15 1 -21 8 -10 11 -9 14 3 12 9 -1 18 -5 21
-8z m30 -31 c1 -7 6 -11 11 -10 6 1 11 -4 11 -12 0 -10 -5 -10 -23 3 -12 9
-18 19 -13 20 5 2 6 9 2 15 -3 7 -2 8 3 4 5 -5 9 -14 9 -20z m-484 -1 c5 3 9
0 9 -5 0 -6 7 -11 15 -11 8 0 15 -5 15 -11 0 -5 5 -7 10 -4 6 3 10 2 10 -3 0
-5 11 -15 25 -22 14 -8 24 -19 21 -26 -2 -6 3 -11 12 -10 9 0 17 -4 17 -11 0
-6 4 -15 9 -20 5 -5 6 -3 2 5 -11 18 9 15 25 -5 12 -14 12 -16 0 -8 -10 5 -12
4 -7 -4 4 -6 12 -8 18 -5 6 4 13 3 17 -2 3 -5 19 -17 34 -27 15 -10 25 -23 21
-29 -4 -6 -3 -8 3 -5 11 7 59 -30 56 -43 -1 -4 5 -7 15 -6 9 0 16 -5 14 -12
-1 -6 3 -11 10 -10 7 2 12 -3 13 -11 0 -8 7 -15 16 -16 21 -4 59 -36 59 -51 0
-6 8 -18 17 -25 11 -10 14 -10 9 -1 -13 22 4 13 37 -19 18 -17 25 -28 17 -23
-13 7 -13 6 -1 -9 8 -10 16 -15 19 -12 8 8 42 -27 36 -37 -3 -4 0 -7 8 -6 7 2
12 -3 10 -10 -1 -6 4 -11 10 -10 7 2 12 -3 11 -9 -2 -7 3 -12 10 -10 6 1 11
-4 10 -10 -2 -7 3 -12 10 -10 6 1 11 -4 10 -10 -2 -7 3 -12 10 -10 6 1 11 -4
10 -10 -2 -7 3 -12 10 -10 6 1 11 -4 10 -10 -2 -7 3 -12 10 -10 6 1 11 -4 10
-10 -2 -7 3 -12 10 -10 6 1 11 -4 10 -10 -2 -7 3 -12 10 -10 6 1 11 -4 9 -11
-1 -8 2 -11 6 -8 5 3 17 -3 27 -14 10 -11 13 -20 7 -20 -6 0 -13 6 -15 13 -4
9 -6 9 -6 -1 -1 -7 7 -15 17 -19 23 -8 94 -82 88 -92 -3 -4 7 -19 22 -32 l27
-24 -25 30 c-22 27 -21 27 13 -4 20 -19 37 -40 37 -45 0 -6 -5 -4 -10 4 -5 8
-10 10 -10 4 0 -6 8 -18 17 -25 11 -10 14 -10 9 -1 -4 6 -4 12 1 12 9 -1 83
-94 83 -105 0 -3 -5 -3 -12 1 -7 4 -8 3 -4 -5 4 -6 11 -9 16 -6 11 7 41 -35
34 -47 -3 -5 0 -7 7 -6 6 2 14 -3 17 -11 3 -9 0 -11 -9 -6 -8 5 -11 5 -7 1 3
-4 9 -7 13 -6 8 2 45 -40 45 -51 0 -4 7 -14 15 -22 8 -8 16 -21 17 -28 2 -7
13 -24 26 -37 13 -13 21 -31 18 -39 -3 -8 -2 -12 2 -9 10 6 75 -99 75 -119 0
-8 5 -13 11 -12 6 1 10 -6 10 -15 -1 -10 3 -15 9 -11 6 4 8 0 4 -11 -4 -9 -3
-14 2 -11 9 5 27 -32 23 -47 -1 -5 3 -8 9 -8 5 0 7 -5 3 -12 -4 -7 -3 -8 4 -4
7 4 33 -37 72 -115 47 -92 57 -120 43 -115 -17 6 -17 5 -1 -7 10 -8 15 -17 11
-20 -3 -4 -1 -7 6 -7 7 0 9 -4 6 -10 -3 -5 -2 -10 4 -10 6 0 7 -7 4 -17 -4
-10 -2 -14 4 -10 11 7 46 -60 38 -74 -4 -5 0 -12 8 -15 9 -3 14 -16 12 -29 -1
-15 2 -22 8 -18 6 4 8 0 4 -11 -4 -9 -3 -14 2 -11 12 7 25 -31 16 -45 -3 -5
-1 -10 5 -10 6 0 9 -4 6 -9 -4 -5 -1 -11 5 -13 7 -2 12 -18 13 -36 0 -18 5
-32 10 -32 4 0 6 -6 3 -14 -3 -8 -2 -16 4 -18 5 -2 11 -13 13 -25 3 -12 10
-31 16 -42 8 -16 8 -21 -2 -21 -11 0 -11 -2 0 -8 7 -5 14 -17 16 -28 2 -10 11
-38 19 -61 10 -30 11 -43 3 -44 -7 0 -6 -2 2 -6 6 -2 10 -9 6 -14 -3 -5 -1 -9
4 -9 5 0 12 -9 15 -20 3 -11 1 -18 -4 -14 -5 3 -9 0 -9 -5 0 -6 5 -11 10 -11
6 0 10 -5 10 -11 0 -5 -6 -7 -12 -4 -7 4 -4 -1 6 -9 15 -12 16 -16 5 -17 -10
0 -10 -2 -1 -6 6 -2 10 -9 6 -14 -3 -5 -1 -9 4 -9 16 0 31 -77 18 -91 -8 -9
-8 -10 0 -6 11 7 40 -104 37 -145 0 -10 5 -18 11 -18 6 0 4 -5 -4 -10 -13 -9
-13 -10 0 -10 13 0 13 -1 0 -10 -12 -7 -12 -10 -1 -10 7 0 11 -6 7 -15 -3 -8
-1 -15 4 -15 6 0 10 -9 10 -21 0 -13 -4 -18 -12 -14 -7 4 -4 -1 6 -9 15 -12
16 -16 5 -16 -9 0 -10 -3 -3 -8 16 -11 24 -52 11 -52 -8 0 -8 -3 -2 -8 6 -4
10 -14 10 -22 -1 -8 2 -23 7 -32 5 -10 4 -19 -2 -23 -8 -5 -7 -11 1 -21 6 -8
9 -23 6 -34 -3 -11 -1 -18 4 -14 5 3 9 -23 9 -59 0 -35 3 -67 7 -71 9 -9 10
-24 16 -241 3 -99 1 -220 -4 -270 -5 -49 -11 -129 -15 -178 -4 -62 -9 -85 -17
-80 -8 5 -8 2 0 -9 7 -8 10 -17 7 -21 -3 -3 -7 -25 -9 -49 -5 -76 -16 -143
-24 -146 -5 -1 -6 -14 -3 -29 4 -20 2 -24 -9 -18 -12 8 -12 6 0 -8 7 -9 9 -17
3 -17 -5 0 -8 -9 -5 -20 3 -13 0 -20 -8 -20 -11 0 -11 -2 1 -10 13 -9 13 -10
0 -10 -13 0 -13 -1 0 -10 12 -8 12 -10 -5 -11 -13 0 -15 -3 -6 -6 11 -5 11 -7
0 -14 -8 -5 -9 -9 -3 -9 13 0 -13 -133 -27 -138 -4 -2 -5 -10 -2 -19 3 -8 0
-19 -8 -24 -9 -6 -10 -9 -2 -9 14 0 -3 -60 -21 -72 -8 -5 -7 -8 1 -8 9 0 9 -9
-1 -37 -7 -21 -16 -55 -20 -75 -4 -21 -11 -38 -16 -38 -4 0 -6 -9 -3 -20 3
-12 0 -20 -6 -20 -7 0 -10 -4 -7 -9 9 -14 -5 -42 -17 -34 -6 3 -7 1 -3 -6 4
-6 0 -34 -9 -62 -13 -38 -20 -48 -27 -38 -7 10 -8 8 -5 -9 3 -13 0 -22 -6 -23
-9 0 -9 -2 0 -5 9 -4 9 -11 1 -29 -6 -14 -14 -22 -19 -20 -4 3 -5 -5 -1 -17 4
-16 2 -19 -8 -13 -9 5 -11 4 -6 -4 9 -14 -2 -53 -13 -47 -11 7 -44 -66 -34
-73 10 -8 13 -42 3 -36 -4 2 -17 -18 -30 -45 -13 -27 -28 -46 -33 -43 -6 4 -7
1 -2 -7 4 -7 2 -16 -6 -21 -8 -4 -14 -14 -15 -21 -3 -34 -5 -39 -16 -32 -6 4
-8 3 -5 -4 10 -15 -3 -43 -16 -35 -5 3 -7 1 -3 -5 7 -12 -13 -62 -26 -62 -4 0
-7 -3 -7 -7 3 -21 -2 -33 -13 -27 -7 4 -8 3 -4 -4 9 -15 -12 -54 -24 -47 -6 4
-7 -1 -3 -11 5 -13 3 -15 -7 -9 -9 5 -11 4 -6 -3 9 -16 -43 -104 -56 -95 -7 3
-8 1 -4 -5 4 -6 0 -23 -9 -36 -9 -14 -14 -30 -11 -35 4 -6 -2 -8 -13 -6 -15 3
-18 0 -14 -12 5 -12 3 -14 -7 -8 -8 5 -11 4 -6 -3 3 -6 -4 -21 -17 -34 -23
-23 -27 -30 -27 -48 0 -5 -7 -10 -16 -10 -8 0 -12 -5 -9 -10 3 -5 1 -10 -4
-10 -6 0 -10 -6 -8 -12 1 -7 -4 -12 -11 -10 -8 1 -11 -2 -7 -7 8 -14 -25 -62
-38 -54 -5 3 -7 2 -4 -4 8 -13 -22 -55 -34 -48 -5 3 -6 0 -4 -8 3 -7 -5 -22
-17 -33 -23 -19 -23 -19 -8 1 14 18 14 19 -2 7 -9 -8 -15 -19 -12 -26 3 -7 -3
-19 -12 -27 -15 -12 -17 -12 -9 0 5 10 4 12 -4 7 -6 -4 -9 -11 -6 -16 7 -12
-45 -71 -56 -64 -5 3 -8 0 -7 -8 2 -7 -3 -12 -10 -10 -8 1 -11 -2 -7 -8 6 -10
-22 -45 -37 -45 -4 0 -8 -4 -7 -8 2 -14 -53 -67 -62 -61 -5 3 -6 -3 -2 -12 5
-14 3 -16 -11 -11 -9 4 -15 3 -12 -2 6 -9 -31 -47 -43 -44 -3 1 -6 -9 -5 -21
1 -18 -4 -22 -22 -20 -13 1 -27 -3 -31 -8 -4 -7 -1 -8 8 -3 8 4 -1 -8 -20 -28
-19 -20 -39 -33 -44 -30 -6 3 -7 1 -4 -4 8 -13 -83 -94 -96 -86 -6 3 -7 1 -4
-4 8 -13 -20 -39 -31 -29 -4 4 -7 28 -6 52 1 25 -2 40 -6 34 -10 -16 -34 84
-27 110 3 11 1 18 -4 15 -11 -8 -23 40 -13 56 5 8 3 9 -6 4 -10 -6 -12 -1 -8
19 3 15 1 26 -6 26 -6 0 -4 5 4 10 11 7 11 10 2 10 -7 0 -10 5 -7 10 3 6 1 10
-6 10 -6 0 -9 8 -6 20 3 10 0 21 -5 22 -6 2 -11 25 -12 50 0 25 -5 44 -10 41
-5 -3 -7 6 -4 20 3 17 1 24 -5 20 -6 -4 -8 0 -4 10 3 9 1 19 -4 23 -6 3 -9 17
-6 30 2 14 0 21 -6 17 -6 -4 -8 4 -5 21 3 15 1 26 -6 26 -6 0 -4 5 4 10 11 7
11 10 2 10 -7 0 -10 4 -7 10 3 5 2 10 -4 10 -5 0 -8 9 -6 20 2 11 -1 20 -6 20
-6 0 -9 8 -8 18 1 9 -1 25 -6 35 -4 9 -4 24 -1 33 3 8 2 13 -3 10 -4 -3 -12
15 -18 39 -6 27 -7 45 -1 45 5 0 3 7 -5 15 -9 8 -14 29 -12 49 1 21 -2 33 -8
29 -6 -4 -8 4 -5 20 3 17 1 24 -5 20 -6 -4 -8 0 -4 10 4 10 1 17 -6 17 -8 0
-6 4 3 10 9 6 10 10 3 10 -13 0 -37 104 -29 126 4 10 2 12 -6 8 -7 -5 -9 1 -6
19 3 16 1 24 -5 20 -6 -4 -8 4 -5 20 3 16 1 24 -5 20 -6 -4 -8 4 -5 21 3 15 1
26 -6 26 -6 0 -4 5 4 10 11 7 11 10 2 10 -7 0 -10 5 -7 10 3 6 2 10 -4 10 -5
0 -8 9 -6 20 2 11 -1 20 -7 20 -6 0 -8 13 -6 29 3 17 0 27 -5 24 -6 -3 -8 9
-5 30 2 20 0 33 -4 31 -4 -3 -8 4 -8 15 0 30 -1 34 -11 52 -5 10 -3 21 4 29 8
9 8 11 0 6 -13 -7 -38 86 -29 110 4 10 2 13 -6 8 -7 -5 -9 1 -6 19 3 15 2 24
-2 22 -4 -3 -10 6 -12 20 -3 14 -1 25 4 25 5 0 2 7 -7 16 -13 13 -13 19 -3 32
10 12 10 14 1 8 -13 -7 -16 3 -16 47 0 9 -4 17 -9 17 -6 0 -8 11 -6 25 3 14 1
25 -5 25 -5 0 -7 11 -5 25 3 13 1 22 -3 19 -9 -5 -14 28 -11 86 1 29 0 32 -8
15 -9 -17 -10 -15 -7 12 2 19 -1 29 -6 26 -6 -4 -8 7 -4 28 3 19 3 27 -1 19
-3 -9 -10 2 -17 30 -9 33 -9 49 -1 59 8 11 8 13 -1 8 -14 -9 -29 35 -18 52 3
6 0 11 -7 11 -9 0 -9 3 2 10 8 5 11 10 5 10 -10 0 -10 104 0 150 5 22 4 22 -4
5 -8 -16 -10 -13 -10 20 0 36 7 48 66 110 36 39 60 61 53 50 -12 -17 -12 -18
0 -7 8 7 15 20 15 30 0 9 5 16 11 15 7 -1 11 5 10 15 0 9 4 16 11 15 7 -2 10
3 7 11 -3 7 3 19 12 27 15 12 17 12 9 0 -5 -10 -4 -12 4 -7 6 4 9 12 6 17 -6
8 42 99 52 99 2 0 1 -5 -3 -12 -4 -7 -3 -8 5 -4 6 4 9 11 6 16 -7 12 26 80 37
74 4 -3 5 3 1 12 -4 12 -3 15 5 10 8 -5 10 -1 5 10 -4 11 2 23 18 36 13 11 18
17 12 13 -15 -7 -16 -4 -7 19 3 9 10 13 15 10 5 -3 6 1 4 8 -7 17 39 141 47
132 4 -3 4 4 1 17 -4 14 -2 20 4 16 7 -5 9 1 5 15 -3 13 -1 19 5 15 6 -4 8 4
5 20 -4 20 -2 24 9 18 11 -6 11 -5 3 4 -9 9 -8 24 2 58 36 119 47 228 48 458
1 141 5 233 11 237 6 5 6 8 -1 8 -14 0 -39 155 -28 172 4 6 3 8 -3 5 -12 -8
-36 99 -26 117 3 6 2 8 -2 3 -14 -12 -33 55 -21 72 9 12 8 13 -3 6 -11 -6 -13
-4 -8 9 4 9 3 15 -2 11 -12 -7 -35 61 -25 76 4 7 3 9 -3 6 -12 -8 -26 20 -17
34 3 5 1 9 -4 9 -14 0 -65 117 -57 130 6 9 4 11 -5 5 -10 -6 -12 -4 -7 9 4 10
3 15 -3 11 -11 -7 -42 49 -33 59 4 3 1 6 -5 6 -16 0 -44 58 -36 72 4 6 3 8 -3
5 -12 -8 -56 60 -48 73 3 5 0 12 -6 16 -7 4 -9 3 -6 -3 3 -5 0 -10 -8 -10 -8
0 -12 4 -9 9 3 5 0 15 -6 23 -6 8 -9 19 -6 24 4 5 1 13 -5 17 -7 4 -9 3 -6 -3
3 -5 0 -10 -8 -10 -10 0 -11 5 -4 18 6 12 5 20 -3 25 -7 5 -8 3 -3 -7 7 -11 6
-12 -7 -2 -8 7 -18 10 -22 6 -4 -4 -4 0 0 10 3 9 11 14 18 10 6 -4 5 1 -3 10
-10 13 -17 14 -26 7 -16 -13 -23 -3 -20 27 1 16 -3 20 -18 17 -16 -3 -17 -1
-5 13 11 14 11 16 -1 8 -11 -6 -13 -4 -8 8 3 9 -1 21 -11 29 -10 8 -13 8 -9 1
4 -6 3 -14 -2 -17 -5 -4 -8 5 -7 18 2 14 -2 24 -7 23 -6 -1 -12 4 -13 11 -1 6
-2 15 -3 18 0 4 -7 1 -15 -5 -11 -9 -13 -6 -9 16 3 24 2 25 -6 8 -7 -14 -10
-15 -10 -5 -1 8 -15 31 -31 50 -16 19 -30 41 -30 48 0 8 -5 10 -12 6 -8 -5 -9
-2 -5 9 3 9 2 16 -3 14 -5 -1 -16 7 -25 18 -16 19 -16 19 -3 -5 72 -123 149
-283 143 -297 -3 -10 -3 -14 1 -10 13 12 49 -83 89 -233 2 -8 11 -40 20 -70 8
-30 26 -128 40 -218 34 -228 36 -461 5 -742 -9 -87 -27 -173 -29 -142 -1 7 -6
10 -13 6 -6 -4 -8 -3 -5 3 4 6 -3 19 -16 29 -18 16 -19 16 -8 2 21 -27 7 -21
-20 9 -13 14 -18 23 -11 19 6 -4 12 -2 12 3 0 6 -5 11 -11 11 -6 0 -9 7 -5 15
3 8 0 14 -7 12 -7 -1 -11 4 -9 12 2 11 0 12 -11 3 -11 -9 -19 -6 -38 16 -14
15 -25 37 -24 48 2 15 -3 21 -14 19 -18 -3 -43 14 -36 25 2 4 -8 18 -23 31
l-27 24 20 -25 20 -25 -22 19 c-13 10 -20 22 -17 27 2 5 -13 27 -36 50 -22 23
-37 45 -34 50 3 5 0 8 -8 7 -7 -2 -12 4 -10 12 1 8 -6 5 -16 -9 -14 -18 -21
-21 -27 -11 -5 8 -4 11 2 7 6 -4 13 4 15 17 4 19 1 24 -13 21 -12 -3 -16 1
-12 11 3 8 1 14 -4 14 -13 0 -35 49 -27 61 3 5 0 8 -8 7 -7 -2 -12 5 -12 14 1
10 -2 16 -6 15 -5 -1 -16 7 -25 18 -15 17 -15 16 0 -9 10 -16 26 -44 37 -62
41 -70 59 -161 60 -309 1 -87 -3 -155 -11 -180 -25 -79 -53 -145 -61 -140 -5
3 -6 -3 -4 -12 5 -21 -62 -129 -77 -125 -6 1 -8 -2 -4 -8 3 -5 2 -10 -4 -10
-5 0 -8 -11 -7 -25 2 -13 0 -22 -4 -20 -11 7 -33 -22 -25 -34 3 -7 0 -8 -9 -5
-15 6 -21 -6 -16 -31 1 -5 -2 -7 -6 -2 -10 10 -45 -23 -37 -36 3 -6 1 -7 -6
-3 -14 9 -43 -12 -35 -25 3 -5 2 -8 -3 -7 -4 1 -30 -10 -58 -24 -77 -39 -155
-54 -216 -40 -28 7 -56 9 -61 5 -7 -3 -8 -1 -4 5 7 11 -27 36 -37 26 -3 -3 -8
-1 -11 5 -4 5 -1 13 5 17 8 5 9 3 4 -6 -5 -9 -4 -11 4 -6 17 11 4 25 -19 21
-14 -3 -17 1 -13 12 4 10 2 14 -4 10 -6 -4 -10 1 -9 10 1 14 -9 18 -51 21 -29
2 -53 1 -53 -3 0 -3 7 -16 15 -29 24 -37 28 -104 11 -180 -9 -37 -13 -73 -10
-78 5 -7 2 -8 -6 -3 -10 6 -12 1 -8 -18 3 -17 1 -24 -5 -20 -6 4 -8 0 -4 -10
3 -10 3 -17 -2 -17 -12 0 -33 -78 -25 -92 4 -6 3 -8 -3 -5 -12 8 -27 -38 -18
-53 4 -6 1 -10 -6 -10 -6 0 -9 -8 -6 -20 3 -11 2 -18 -3 -15 -10 6 -23 -42
-15 -55 4 -6 1 -10 -6 -10 -6 0 -9 -8 -6 -20 3 -11 2 -18 -3 -15 -10 6 -23
-43 -14 -57 4 -6 3 -8 -3 -5 -13 8 -37 -79 -27 -95 4 -6 3 -8 -3 -5 -12 8 -27
-38 -18 -53 4 -6 1 -10 -6 -10 -6 0 -9 -8 -6 -20 3 -11 2 -18 -3 -15 -10 6
-32 -83 -24 -97 4 -6 3 -8 -3 -5 -12 8 -27 -38 -18 -53 4 -6 1 -10 -6 -10 -6
0 -9 -8 -6 -20 3 -12 1 -18 -5 -14 -7 5 -9 -2 -6 -19 3 -15 2 -24 -2 -22 -11
7 -22 -43 -14 -57 4 -6 3 -8 -3 -5 -12 7 -36 -40 -27 -54 3 -5 0 -8 -8 -7 -7
2 -12 -3 -11 -9 2 -7 -3 -12 -10 -10 -6 1 -11 -3 -10 -9 1 -7 -5 -11 -15 -10
-9 0 -16 -4 -15 -11 2 -8 -4 -10 -14 -6 -10 4 -14 2 -10 -4 5 -7 -234 -10
-763 -9 -678 1 -770 -1 -771 -14 -1 -11 -3 -10 -6 2 -4 16 -51 18 -706 21
-386 2 -707 5 -714 7 -7 2 -10 7 -7 11 2 4 0 10 -6 14 -5 3 -10 1 -10 -5 0 -6
-4 -9 -10 -5 -5 3 -6 13 -3 22 5 12 2 15 -10 10 -9 -3 -19 -1 -23 5 -5 7 -2 8
6 3 8 -5 11 -3 8 6 -3 8 -10 13 -16 12 -5 -1 -8 7 -5 17 3 11 0 20 -6 20 -5 0
-8 6 -5 14 3 7 -2 21 -11 30 -9 9 -12 16 -6 16 6 0 8 7 5 15 -4 8 -10 13 -14
10 -5 -3 -6 4 -3 15 3 13 0 20 -8 20 -11 0 -11 2 1 10 11 7 11 10 2 10 -7 0
-10 5 -7 10 3 6 2 10 -3 10 -6 0 -8 9 -5 20 3 12 0 20 -6 20 -7 0 -9 5 -6 10
3 6 0 10 -7 10 -10 0 -10 2 0 9 12 7 12 11 -1 22 -7 7 -12 21 -10 30 3 9 -3
23 -12 33 -9 9 -12 16 -7 16 5 0 3 20 -6 45 -8 25 -18 45 -22 45 -5 0 -6 9 -3
20 3 11 0 20 -6 20 -6 0 -8 7 -4 17 4 10 2 14 -4 10 -7 -5 -9 0 -6 13 3 11 1
20 -5 20 -6 0 -8 8 -5 19 2 10 -3 25 -11 34 -10 10 -12 17 -5 19 8 3 6 9 -4
20 -9 8 -13 18 -10 22 4 3 0 6 -8 6 -11 0 -11 2 1 10 12 8 12 10 -5 10 -17 0
-17 2 -5 10 9 6 11 10 3 10 -7 0 -10 7 -7 15 4 8 1 15 -5 15 -6 0 -8 7 -5 15
4 9 0 15 -7 15 -11 0 -11 3 1 10 11 7 11 10 2 10 -7 0 -10 5 -7 10 3 6 3 10
-2 10 -4 0 -9 12 -10 27 0 15 -6 29 -11 31 -5 1 -8 11 -5 21 2 10 -3 25 -12
35 -9 9 -12 16 -6 16 7 0 7 8 -1 25 -6 14 -16 25 -22 25 -6 0 -4 5 4 10 11 7
11 10 2 10 -7 0 -10 5 -7 10 3 6 2 10 -3 10 -6 0 -8 9 -5 20 3 11 1 20 -5 20
-6 0 -9 9 -7 20 2 11 -2 26 -9 32 -7 7 -11 20 -8 30 2 10 -1 18 -7 18 -7 0 -9
5 -6 10 3 6 0 10 -7 10 -9 0 -9 3 2 10 11 7 11 10 2 10 -7 0 -10 5 -7 10 3 6
1 10 -5 10 -6 0 -8 5 -5 10 3 6 0 10 -7 10 -10 0 -10 2 0 9 12 7 12 11 -1 22
-7 7 -12 21 -9 31 2 10 -1 18 -7 18 -7 0 -9 5 -6 10 3 6 2 10 -3 10 -6 0 -8 9
-5 20 3 12 0 20 -6 20 -7 0 -9 5 -6 10 3 6 1 10 -5 10 -6 0 -8 5 -5 10 3 6 0
10 -7 10 -9 0 -9 3 2 10 11 7 11 10 2 10 -7 0 -10 5 -7 10 3 6 2 10 -3 10 -6
0 -8 8 -5 19 2 10 -3 25 -11 34 -12 11 -13 17 -3 20 6 3 3 6 -8 6 -17 1 -17 3
-5 11 11 7 11 10 2 10 -7 0 -10 5 -7 10 3 6 2 10 -3 10 -6 0 -8 9 -5 20 3 12
0 20 -6 20 -7 0 -9 5 -6 10 3 6 0 10 -7 10 -9 0 -9 3 2 10 11 7 11 10 2 10 -7
0 -10 5 -7 10 3 6 2 10 -3 10 -6 0 -8 10 -4 22 3 14 1 19 -6 14 -8 -5 -10 -2
-6 8 3 9 2 16 -2 16 -5 0 -10 17 -11 37 -1 21 -7 39 -13 41 -5 2 -8 8 -4 13 3
5 -1 9 -8 9 -10 0 -10 2 0 9 12 7 12 11 -1 22 -7 7 -12 21 -9 31 2 10 -1 18
-7 18 -7 0 -9 5 -6 10 3 6 0 10 -7 10 -9 0 -9 3 2 10 11 7 11 10 2 10 -7 0
-10 5 -7 10 3 6 2 10 -3 10 -6 0 -8 9 -5 20 3 11 1 20 -5 20 -6 0 -8 8 -5 19
2 10 -2 25 -10 32 -8 7 -12 21 -10 30 3 9 -3 23 -11 32 -11 10 -12 17 -4 19 8
3 7 9 -4 18 -8 8 -13 22 -10 32 2 10 -1 18 -7 18 -7 0 -9 4 -6 10 3 5 -6 55
-21 110 l-27 100 -361 0 -362 0 59 -177 c32 -98 60 -182 61 -188 19 -76 52
-180 143 -455 36 -107 67 -202 69 -210 2 -8 34 -106 71 -217 38 -111 69 -205
70 -210 2 -4 30 -87 64 -183 33 -96 67 -195 74 -220 18 -62 84 -266 165 -510
113 -340 191 -584 196 -610 3 -14 7 -33 10 -42 5 -17 69 -18 1169 -18 l1164 0
48 -28 c27 -16 74 -46 105 -66 31 -21 62 -35 68 -31 6 4 9 1 8 -7 -2 -7 5 -12
14 -12 10 1 15 -2 13 -7 -6 -8 74 -55 88 -51 4 1 7 -2 7 -7 0 -13 102 -76 118
-73 8 2 11 -1 8 -7 -4 -5 -2 -12 3 -15 5 -4 8 2 6 11 -2 10 -4 22 -4 26 -1 5
-6 5 -13 1 -8 -5 -9 -2 -5 10 4 9 3 15 -2 12 -5 -3 -12 1 -15 10 -4 10 -2 13
6 8 8 -5 9 0 4 17 -17 55 -27 138 -24 193 7 97 31 106 198 82 203 -30 478 -39
606 -20 54 8 116 24 150 40 33 16 64 28 71 29 13 0 28 13 28 23 1 4 12 27 25
52 41 76 62 123 75 170 14 47 70 205 124 350 18 47 34 92 36 100 5 21 94 280
105 305 28 64 33 99 39 280 l1 41 68 10 c43 7 116 32 195 67 70 31 139 58 154
60 32 5 66 -9 58 -24 -4 -5 -1 -8 5 -7 14 3 18 -13 22 -89 2 -29 6 -53 10 -53
4 0 5 -8 2 -17 -5 -14 -4 -15 4 -4 6 8 8 21 5 30 -4 14 -3 14 6 1 9 -13 11
-13 12 0 1 8 1 19 0 23 -1 5 3 6 9 2 9 -6 14 8 11 28 -1 5 3 6 9 2 5 -3 10 -3
10 2 0 4 10 19 21 33 l21 25 -18 -30 c-9 -16 -33 -54 -52 -83 l-35 -52 5 -110
c3 -66 11 -116 18 -125 7 -8 8 -15 3 -15 -7 0 -7 -19 -1 -52 12 -73 29 -169
34 -193 3 -11 7 -31 10 -45 3 -14 20 -86 38 -160 28 -116 52 -217 71 -307 3
-13 7 -32 10 -43 12 -48 16 -67 21 -90 3 -14 11 -50 19 -80 8 -31 17 -73 21
-95 3 -22 8 -43 11 -48 2 -4 7 -20 9 -35 3 -15 9 -43 14 -62 5 -19 11 -46 14
-60 3 -14 7 -35 10 -48 4 -12 8 -32 12 -45 3 -12 7 -33 10 -47 3 -14 9 -41 14
-60 5 -19 11 -46 14 -60 3 -14 7 -36 10 -50 3 -14 8 -36 11 -50 3 -14 8 -36
11 -50 3 -14 7 -36 10 -50 3 -14 18 -77 34 -140 16 -63 32 -131 35 -150 3 -19
12 -60 20 -90 8 -30 16 -68 19 -85 8 -45 37 -171 58 -255 10 -41 21 -84 23
-95 2 -11 19 -77 36 -147 31 -127 32 -165 4 -154 -8 3 -14 0 -12 -7 1 -7 -4
-11 -11 -9 -6 1 -11 -4 -10 -10 2 -7 -5 -12 -14 -12 -10 1 -15 -2 -13 -7 8
-11 -42 -42 -55 -34 -6 4 -9 1 -8 -7 2 -7 -5 -13 -14 -13 -9 0 -20 -4 -25 -9
-5 -5 -2 -6 7 -2 8 4 4 -2 -10 -13 -14 -11 -31 -19 -37 -16 -7 2 -12 -1 -10
-8 1 -7 -6 -11 -15 -11 -10 1 -16 -2 -13 -6 8 -14 -308 -193 -490 -277 -225
-104 -553 -222 -716 -257 -13 -3 -42 -10 -64 -16 -142 -36 -420 -83 -630 -106
-281 -30 -774 -5 -1085 56 -52 10 -128 24 -168 31 -40 7 -68 15 -63 18 5 4 13
22 16 41 3 19 17 94 30 165 13 72 26 150 30 175 3 25 10 63 15 85 5 22 11 63
15 90 3 28 8 57 10 65 6 20 13 63 20 125 4 28 13 86 20 130 8 44 17 98 20 120
3 22 9 64 14 92 5 37 5 53 -3 53 -8 0 -8 2 0 8 6 4 14 28 17 55 3 26 9 52 12
57 4 7 -235 10 -694 10 -554 0 -701 -3 -702 -12 0 -10 -2 -10 -6 0 -3 9 -52
12 -194 12 l-189 0 20 -40 c16 -31 20 -59 20 -138 0 -130 -25 -206 -99 -300
-101 -128 -300 -194 -466 -155 -33 8 -70 15 -82 17 -13 1 -26 6 -30 11 -5 4
-2 5 5 1 6 -4 12 -5 12 -2 0 3 -18 15 -40 26 -29 15 -40 17 -41 8 0 -8 -3 -7
-6 2 -8 23 -75 90 -90 90 -7 0 -10 7 -7 15 4 9 -2 18 -17 24 -13 5 -18 10 -11
10 7 1 10 6 7 11 -4 6 -11 7 -17 4 -6 -4 -8 -2 -4 4 8 13 -14 63 -25 56 -5 -3
-6 3 -2 12 5 13 3 15 -7 9 -8 -5 -11 -4 -6 3 8 13 -3 64 -13 58 -3 -2 -6 12
-5 32 0 21 -2 63 -6 94 -3 34 -2 54 3 51 6 -3 8 8 5 26 -3 18 0 31 6 31 6 0 4
5 -4 10 -12 8 -12 10 -1 10 8 0 11 7 8 20 -3 11 -2 18 2 16 11 -7 33 62 25 75
-5 8 -3 9 6 4 10 -6 12 -4 7 9 -4 10 -3 15 3 11 10 -6 29 24 35 57 3 11 7 23
11 27 4 3 4 -3 0 -14 -5 -14 2 -11 24 12 16 18 30 37 30 43 0 6 4 9 9 6 5 -3
15 2 22 11 10 11 10 14 2 9 -7 -4 -21 -2 -30 4 -15 9 -14 10 7 4 23 -6 24 -6
10 11 -14 18 -14 18 12 1 25 -16 27 -16 40 3 8 12 18 18 21 14 4 -3 7 -1 7 6
0 7 5 9 10 6 6 -3 10 -1 10 5 0 6 4 9 8 6 11 -7 82 15 77 24 -2 3 53 6 123 5
70 0 133 1 139 3 14 5 7 22 -8 22 -6 0 -7 -4 -4 -10 4 -6 -5 -10 -19 -10 -14
0 -26 3 -26 8 0 4 -30 5 -67 4 -38 -2 -66 -2 -63 1 3 3 34 6 70 8 54 2 67 6
78 23 12 20 12 20 10 1 -2 -11 -7 -23 -13 -27 -6 -5 -6 -8 2 -8 7 0 16 7 21
16 7 13 13 10 38 -18 35 -40 98 -81 108 -70 4 4 6 0 4 -8 -2 -9 4 -14 14 -14
10 1 16 -2 13 -6 -3 -5 -1 -12 5 -15 8 -5 9 9 4 44 l-7 51 1008 0 c554 0 1009
1 1011 3 3 2 10 68 18 159 2 20 6 40 9 45 3 4 8 29 11 55 4 26 8 53 11 60 2 7
7 31 10 52 3 21 8 50 11 62 l6 24 -1248 0 c-1235 0 -1249 0 -1282 20 -18 11
-39 17 -45 14 -7 -4 -9 -3 -4 1 9 10 -22 47 -34 39 -5 -3 -6 2 -3 11 5 11 0
18 -16 22 -16 4 -18 8 -8 14 10 7 11 9 0 9 -7 0 -11 4 -8 9 7 11 -13 71 -24
71 -4 0 -6 9 -3 20 3 11 0 20 -6 20 -6 0 -8 7 -4 17 4 10 2 14 -4 10 -7 -5 -9
0 -6 13 3 12 0 20 -6 20 -7 0 -9 5 -6 10 3 6 0 10 -7 10 -9 0 -9 3 2 10 11 7
11 10 2 10 -7 0 -10 5 -7 10 3 6 1 10 -5 10 -6 0 -8 5 -5 10 3 6 0 10 -7 10
-10 0 -10 2 0 9 12 7 12 11 -1 22 -7 7 -12 21 -9 31 2 10 -1 18 -7 18 -7 0 -9
5 -6 10 3 5 2 10 -4 10 -6 0 -8 7 -5 15 4 8 1 15 -5 15 -6 0 -8 7 -5 15 4 8 2
15 -4 15 -6 0 -8 9 -5 20 3 12 0 20 -6 20 -7 0 -9 5 -6 10 3 6 0 10 -7 11 -9
0 -10 2 -1 5 15 6 -4 54 -21 54 -6 0 -4 5 4 10 11 7 11 10 2 10 -7 0 -10 5 -7
10 3 5 1 10 -5 10 -6 0 -8 5 -5 10 9 14 -4 52 -16 45 -5 -3 -6 1 -3 9 3 9 2
16 -4 16 -6 0 -8 8 -5 19 2 10 -2 25 -10 32 -8 7 -12 21 -10 30 3 9 -2 23 -10
30 -8 7 -12 21 -10 30 3 9 -2 23 -11 31 -8 9 -13 18 -10 21 8 8 -26 107 -36
107 -4 0 -6 8 -3 19 2 10 -2 25 -10 32 -8 7 -12 21 -9 31 2 10 -1 18 -7 18 -7
0 -9 4 -6 10 3 5 3 10 -2 10 -4 0 -9 12 -10 27 0 15 -6 29 -11 31 -5 1 -8 11
-5 21 2 10 -2 25 -11 33 -8 9 -13 18 -10 21 8 8 -15 87 -25 87 -5 0 -7 9 -4
20 3 12 0 20 -6 20 -7 0 -9 5 -6 10 3 6 2 10 -4 10 -5 0 -8 9 -6 20 2 11 -1
20 -6 20 -6 0 -8 4 -5 9 9 14 -5 42 -16 35 -6 -4 -8 2 -3 15 3 11 2 21 -3 21
-6 0 -8 9 -5 20 3 12 0 20 -6 20 -7 0 -9 4 -6 10 3 6 1 10 -5 10 -6 0 -9 4 -5
10 8 13 -5 61 -15 55 -5 -3 -6 4 -3 15 3 12 0 20 -6 20 -7 0 -9 5 -6 10 3 6 2
10 -3 10 -6 0 -8 9 -5 20 3 11 1 20 -3 20 -5 0 -10 12 -11 27 0 15 -6 29 -12
31 -5 2 -7 10 -4 19 4 10 2 14 -4 10 -7 -5 -9 0 -6 13 3 12 0 20 -6 20 -7 0
-9 4 -6 10 3 6 2 10 -3 10 -6 0 -8 9 -5 20 3 11 0 20 -6 20 -6 0 -8 7 -4 17 4
10 2 14 -4 10 -7 -5 -9 0 -6 13 3 12 0 20 -6 20 -7 0 -9 5 -6 10 3 6 1 10 -5
10 -6 0 -8 5 -5 10 3 6 0 10 -7 10 -9 0 -9 3 2 10 11 7 11 10 2 10 -7 0 -10 5
-7 10 3 6 2 10 -3 10 -6 0 -8 10 -5 23 3 14 2 18 -4 10 -6 -8 -9 0 -9 24 0 20
-5 38 -12 41 -7 2 -10 8 -6 13 3 5 -1 9 -8 9 -11 0 -11 2 0 9 11 7 11 10 0 22
-7 8 -14 25 -16 39 -1 14 -7 26 -12 28 -5 2 -6 10 -3 19 4 10 2 14 -4 10 -7
-5 -9 0 -6 13 3 11 1 20 -3 20 -5 0 -10 12 -11 26 0 15 -5 29 -10 33 -4 3 -9
17 -11 31 -1 14 -6 26 -11 28 -5 2 -7 12 -4 22 3 11 1 20 -5 20 -6 0 -8 9 -5
20 4 15 0 20 -13 20 -16 0 -17 2 -4 10 8 5 10 10 3 10 -6 0 -9 9 -6 20 3 12 0
20 -6 20 -7 0 -9 5 -6 10 3 6 2 10 -3 10 -6 0 -8 10 -4 22 3 14 1 19 -6 14 -8
-5 -10 -2 -6 8 3 9 1 16 -6 16 -6 0 -8 5 -5 10 3 6 0 10 -7 10 -9 0 -9 3 2 10
8 5 10 10 3 10 -6 0 -9 8 -6 19 2 10 -2 25 -10 32 -8 7 -12 21 -10 30 3 9 -2
22 -10 30 -7 8 -12 20 -9 28 3 8 0 11 -6 7 -6 -4 -8 2 -4 16 3 13 1 19 -5 15
-7 -5 -9 1 -5 15 3 13 1 19 -5 15 -7 -5 -9 0 -6 12 2 10 -2 25 -10 32 -8 7
-12 21 -10 30 3 9 -2 23 -10 30 -8 7 -12 21 -10 30 3 9 -2 23 -11 31 -8 9 -12
18 -9 22 4 3 2 6 -4 6 -6 0 -9 8 -6 19 2 10 -2 25 -10 32 -8 7 -12 21 -9 31 2
10 -1 18 -7 18 -7 0 -9 5 -6 10 3 6 2 10 -3 10 -6 0 -8 8 -5 19 2 10 -2 24
-10 32 -7 8 -12 20 -9 28 3 8 0 11 -7 7 -7 -4 -9 -2 -5 8 3 8 1 24 -5 35 -6
11 -12 31 -13 45 -1 15 -7 26 -13 26 -6 0 -7 3 0 8 15 11 17 55 3 64 -10 5 -8
8 5 8 15 0 22 11 18 33 0 4 4 7 10 7 5 0 7 5 4 10 -3 6 -1 10 5 10 6 0 8 5 5
10 -4 6 -1 9 7 8 7 -2 12 3 10 10 -1 6 4 11 10 10 7 -2 11 4 10 12 -2 8 -1 12
3 8 4 -3 31 5 61 18 l55 24 497 -1 c414 0 565 -5 689 -21 7 -1 10 -5 7 -9 -2
-4 6 -13 18 -20 12 -7 29 -18 36 -26 8 -7 19 -10 25 -6 7 3 9 3 5 -2 -4 -4 3
-28 16 -54 13 -25 26 -58 30 -73 3 -16 11 -28 17 -28 6 0 7 -4 4 -10 -3 -5 7
-49 23 -97 17 -49 40 -122 52 -163 12 -41 25 -86 30 -100 5 -14 23 -72 40
-130 17 -58 39 -125 47 -150 8 -25 16 -52 18 -60 4 -15 33 -116 39 -135 2 -5
7 -25 11 -42 4 -18 13 -33 19 -33 6 0 49 -4 96 -10 47 -5 121 -12 165 -15 207
-15 457 -36 520 -44 39 -6 116 -12 173 -16 l103 -6 -26 45 c-19 32 -23 46 -13
46 9 0 10 2 1 8 -8 5 -7 17 4 47 8 22 15 45 15 52 1 7 5 10 9 8 4 -3 10 2 13
11 3 8 10 13 15 10 4 -3 8 4 7 17 -1 17 4 22 21 21 13 -1 20 2 18 6 -8 12 36
61 47 54 7 -4 8 -2 4 5 -10 15 13 43 27 34 5 -3 7 -1 4 4 -9 14 32 65 45 57 7
-4 8 -2 4 5 -9 13 12 44 24 36 4 -3 7 3 6 13 0 9 5 16 12 14 8 -1 11 2 7 7 -8
13 26 52 38 44 6 -3 7 -1 3 6 -8 13 12 44 24 36 4 -2 6 6 5 20 -2 18 1 23 16
20 10 -2 18 -1 17 3 -2 4 5 18 14 32 13 19 17 51 19 140 1 64 5 140 10 170 5
30 12 78 15 105 4 28 9 52 13 55 3 3 7 25 8 49 1 24 6 47 10 50 4 3 9 19 10
35 2 33 37 154 60 208 8 20 12 42 8 50 -5 7 -4 10 0 5 5 -4 20 19 33 50 13 32
29 61 34 64 5 3 -16 14 -46 23 -31 10 -56 22 -56 28 0 5 -4 6 -10 3 -6 -3 -10
-1 -10 5 0 6 -5 8 -10 5 -6 -4 -26 3 -45 15 -19 12 -38 19 -43 16 -5 -3 -9 1
-9 9 0 8 5 11 10 8 6 -3 7 -1 3 5 -4 6 -13 9 -20 6 -7 -3 -19 3 -27 13 -13 17
-13 17 6 3 17 -12 18 -12 7 0 -7 8 -20 15 -30 15 -10 0 -16 6 -14 15 3 11 -3
9 -20 -5 -21 -18 -21 -18 -8 -1 14 18 13 18 -10 13 -14 -4 -19 -4 -12 -1 6 3
12 10 12 16 0 5 -6 8 -12 5 -17 -6 -78 52 -72 68 3 6 -3 18 -13 26 -17 13 -17
13 -3 -6 12 -17 12 -18 0 -7 -8 7 -15 20 -15 30 0 9 -7 17 -15 17 -9 0 -14 8
-12 19 2 13 -1 16 -10 10 -9 -6 -9 -2 2 12 8 10 10 16 6 12 -16 -14 -69 114
-80 195 -4 27 -10 59 -13 70 -7 28 -12 207 -7 207 3 0 22 -9 43 -19 72 -37
202 -54 356 -47 77 3 163 11 190 16 59 12 77 16 130 25 22 4 67 14 100 22 33
8 69 17 80 19 17 3 168 45 215 59 65 20 321 74 358 75 8 0 10 5 6 13 -6 9 -5
9 8 0 8 -7 17 -11 20 -8 12 12 145 20 323 20 183 -1 306 -14 430 -47 22 -5 49
-12 60 -14 11 -2 41 -10 66 -17 24 -8 53 -13 62 -11 9 1 17 -2 17 -6 0 -5 10
-12 23 -16 12 -4 63 -24 112 -45 50 -21 97 -39 105 -41 8 -2 23 -11 33 -20 14
-12 26 -14 42 -8 13 5 26 6 31 2 4 -4 4 -2 0 5 -4 7 -14 10 -24 7 -9 -3 -4 2
13 12 16 9 35 23 43 30 15 16 28 18 35 7 2 -5 2 -2 1 5 -2 7 12 20 31 29 19 9
32 20 29 25 -3 5 -2 7 3 6 4 -1 22 5 39 15 17 9 35 13 39 9 3 -4 5 0 3 8 -1 8
3 14 10 12 6 -1 12 3 12 9 0 5 5 7 12 3 8 -5 9 -2 5 10 -4 9 -3 14 2 11 5 -3
12 -1 16 5 4 6 11 8 16 5 5 -4 9 0 9 7 0 9 3 9 10 -2 8 -13 10 -12 10 3 0 10
5 15 10 12 6 -3 10 1 10 10 0 9 5 13 10 10 6 -3 10 -2 10 4 0 5 8 12 19 16 10
3 29 14 41 25 12 11 26 18 29 15 4 -2 13 5 21 15 8 10 18 16 24 13 5 -4 7 0 4
9 -5 11 0 14 18 12 15 -1 22 2 17 9 -4 6 0 8 10 4 10 -4 16 -2 14 6 -1 7 4 11
11 10 6 -2 12 2 12 8 0 5 5 7 10 4 6 -3 10 -1 10 5 0 6 5 8 12 4 6 -4 8 -3 5
3 -9 14 40 46 55 37 7 -4 8 -3 4 4 -7 11 46 45 58 37 3 -3 4 -2 1 1 -7 10 24
36 35 29 6 -4 7 1 3 12 -6 16 -5 16 10 4 16 -12 17 -12 10 5 -6 17 -5 17 10 5
15 -12 17 -12 12 0 -3 9 9 21 34 33 22 10 43 26 47 35 4 11 8 12 11 3 3 -6 9
-10 14 -6z m546 -53 c0 -9 -4 -10 -14 -2 -7 6 -13 12 -13 14 0 1 6 2 13 2 8 0
14 -6 14 -14z m40 -30 c0 -9 -4 -10 -14 -2 -7 6 -13 12 -13 14 0 1 6 2 13 2 8
0 14 -6 14 -14z m58 -44 c-6 -8 25 -23 40 -20 6 2 7 -1 2 -5 -4 -4 1 -17 10
-28 l18 -21 -25 20 c-59 49 -71 62 -56 62 8 0 13 -4 11 -8z m402 -383 c-1 -5
3 -10 10 -11 6 0 15 -4 20 -8 4 -5 8 -14 8 -20 1 -7 6 -11 13 -9 7 1 11 -4 10
-10 -2 -7 3 -12 10 -10 14 2 16 -4 4 -12 -5 -3 -30 16 -56 43 -27 28 -41 48
-32 48 8 0 14 -5 13 -11z m100 -93 c-4 -3 -2 -12 4 -20 15 -17 1 -17 -17 1
-11 11 -11 16 -1 19 18 8 21 8 14 0z m120 -147 c-1 -5 4 -10 12 -11 8 0 15 -8
17 -19 2 -15 -3 -13 -27 10 -34 32 -33 31 -15 31 8 0 14 -5 13 -11z m81 -85
c-2 -20 3 -31 12 -26 6 4 9 3 8 -2 -1 -4 4 -19 11 -33 9 -19 6 -17 -14 8 -15
18 -30 30 -34 28 -4 -3 -7 3 -7 13 0 10 6 18 13 18 6 0 12 -3 11 -6z m106
-129 c3 -5 -1 -9 -9 -9 -8 0 -12 4 -9 9 3 4 7 8 9 8 2 0 6 -4 9 -8z m11 -30
c-7 -7 15 -43 24 -38 4 3 8 -1 8 -9 0 -18 -11 -11 -36 24 -16 22 -17 28 -5 28
7 0 12 -2 9 -5z m65 -105 c10 -20 10 -20 -3 -5 -8 10 -16 16 -19 13 -2 -3 -5
2 -5 10 0 19 14 10 27 -18z m797 -19 c-3 -8 -6 -5 -6 6 -1 11 2 17 5 13 3 -3
4 -12 1 -19z m-753 -44 c3 -8 2 -12 -4 -9 -6 3 -10 10 -10 16 0 14 7 11 14 -7z
m40 -60 c3 -8 2 -12 -4 -9 -6 3 -10 10 -10 16 0 14 7 11 14 -7z m-7959 -23
c-6 -5 -25 10 -25 20 0 5 6 4 14 -3 8 -7 12 -15 11 -17z m8000 -31 c-3 -5 -1
-10 6 -10 7 0 10 -3 6 -6 -9 -9 -28 6 -22 17 4 5 8 9 11 9 3 0 2 -4 -1 -10z
m-5124 -23 c-10 -9 -11 -8 -5 6 3 10 9 15 12 12 3 -3 0 -11 -7 -18z m-2761 -1
c0 -3 -4 -8 -10 -11 -5 -3 -10 -1 -10 4 0 6 5 11 10 11 6 0 10 -2 10 -4z
m2820 -38 c0 -4 -9 1 -20 12 -11 11 -20 23 -20 27 0 3 9 -2 20 -12 11 -10 20
-22 20 -27z m5108 -13 c6 -14 10 -25 8 -25 -2 0 -11 11 -20 25 -9 14 -13 25
-8 25 5 0 14 -11 20 -25z m-5077 -12 c13 -16 12 -17 -3 -4 -10 7 -18 15 -18
17 0 8 8 3 21 -13z m5127 -48 c-3 -3 -9 2 -12 12 -6 14 -5 15 5 6 7 -7 10 -15
7 -18z m16 -52 c9 -18 14 -33 12 -33 -6 0 -36 55 -36 66 0 11 5 3 24 -33z
m-5044 13 c0 -2 -7 -7 -16 -10 -8 -3 -12 -2 -9 4 6 10 25 14 25 6z m25 -27
c11 -16 1 -19 -13 -3 -7 8 -8 14 -3 14 5 0 13 -5 16 -11z m5062 -54 c0 -8 -4
-12 -9 -9 -5 3 -6 10 -3 15 9 13 12 11 12 -6z m18 -25 c-3 -5 -1 -10 6 -10 7
0 10 -3 6 -6 -9 -9 -28 6 -22 17 4 5 8 9 11 9 3 0 2 -4 -1 -10z m29 -67 c9
-18 14 -33 12 -33 -6 0 -36 55 -36 66 0 11 5 3 24 -33z m453 -25 c-3 -8 -6 -5
-6 6 -1 11 2 17 5 13 3 -3 4 -12 1 -19z m-400 -65 c-4 -3 0 -17 8 -30 9 -13
12 -23 7 -23 -11 0 -32 46 -25 54 4 3 9 6 11 6 3 0 2 -3 -1 -7z m-8129 -80
c-32 -2 -84 -2 -115 0 -32 2 -6 3 57 3 63 0 89 -1 58 -3z m520 0 c-16 -2 -40
-2 -55 0 -16 2 -3 4 27 4 30 0 43 -2 28 -4z m7989 -90 c-3 -10 -5 -4 -5 12 0
17 2 24 5 18 2 -7 2 -21 0 -30z m-237 -178 c0 -5 -5 -3 -10 5 -5 8 -10 20 -10
25 0 6 5 3 10 -5 5 -8 10 -19 10 -25z m-7040 -43 c0 -8 -49 32 -54 44 -3 9 7
3 24 -13 16 -15 30 -29 30 -31z m-1622 7 c-3 -8 -7 -3 -11 10 -4 17 -3 21 5
13 5 -5 8 -16 6 -23z m8700 -64 c-3 -3 -9 2 -12 12 -6 14 -5 15 5 6 7 -7 10
-15 7 -18z m21 -60 c0 -5 -4 -3 -9 5 -5 8 -9 22 -9 30 0 16 17 -16 18 -35z
m118 -27 c-3 -8 -6 -5 -6 6 -1 11 2 17 5 13 3 -3 4 -12 1 -19z m-100 -30 c-3
-8 -6 -5 -6 6 -1 11 2 17 5 13 3 -3 4 -12 1 -19z m56 -41 c3 -8 -1 -14 -8 -14
-7 0 -11 6 -8 14 3 7 6 13 8 13 2 0 5 -6 8 -13z m-24 -52 c0 -5 -4 -3 -9 5 -5
8 -9 22 -9 30 0 16 17 -16 18 -35z m-7992 -41 c-3 -3 -12 -4 -19 -1 -8 3 -5 6
6 6 11 1 17 -2 13 -5z m206 -1 c-7 -2 -19 -2 -25 0 -7 3 -2 5 12 5 14 0 19 -2
13 -5z m115 0 c-10 -2 -28 -2 -40 0 -13 2 -5 4 17 4 22 1 32 -1 23 -4z m-315
-20 c-7 -2 -19 -2 -25 0 -7 3 -2 5 12 5 14 0 19 -2 13 -5z m100 0 c-7 -2 -21
-2 -30 0 -10 3 -4 5 12 5 17 0 24 -2 18 -5z m80 0 c-7 -2 -19 -2 -25 0 -7 3
-2 5 12 5 14 0 19 -2 13 -5z m114 1 c-3 -3 -12 -4 -19 -1 -8 3 -5 6 6 6 11 1
17 -2 13 -5z m-264 -58 c7 4 4 -1 -5 -11 -20 -22 -32 -16 -21 11 4 11 8 13 11
6 2 -7 9 -9 15 -6z m1211 -31 c3 -8 1 -15 -4 -15 -6 0 -10 7 -10 15 0 8 2 15
4 15 2 0 6 -7 10 -15z m-1211 -11 c3 -3 3 -13 0 -21 -5 -12 -7 -12 -14 -1 -15
23 -4 40 14 22z m77 -50 c0 -8 -19 -13 -24 -6 -3 5 1 9 9 9 8 0 15 -2 15 -3z
m6 -60 c1 -9 0 -13 -4 -10 -3 4 -7 14 -8 22 -1 9 0 13 4 10 3 -4 7 -14 8 -22z
m-43 3 c7 4 8 0 4 -11 -4 -9 0 -33 8 -52 8 -19 12 -34 9 -34 -6 0 -29 55 -38
90 -3 14 -3 19 0 12 3 -6 11 -9 17 -5z m1251 -123 c3 -8 2 -12 -4 -9 -6 3 -10
10 -10 16 0 14 7 11 14 -7z m-1187 -106 c-3 -8 -6 -5 -6 6 -1 11 2 17 5 13 3
-3 4 -12 1 -19z m5650 -140 c-3 -8 -6 -5 -6 6 -1 11 2 17 5 13 3 -3 4 -12 1
-19z m-5583 -13 c-4 -8 -8 -15 -10 -15 -2 0 -4 7 -4 15 0 8 4 15 10 15 5 0 7
-7 4 -15z m23 -31 c-3 -3 -12 -4 -19 -1 -8 3 -5 6 6 6 11 1 17 -2 13 -5z
m5540 -36 c-3 -8 -6 -5 -6 6 -1 11 2 17 5 13 3 -3 4 -12 1 -19z m-5531 -4 c-8
-21 2 -56 14 -49 4 3 6 -4 3 -16 -5 -19 -7 -18 -20 11 -12 30 -10 70 4 70 3 0
2 -7 -1 -16z m39 -123 c-6 -5 -25 10 -25 20 0 5 6 4 14 -3 8 -7 12 -15 11 -17z
m5452 -3 c-3 -8 -6 -5 -6 6 -1 11 2 17 5 13 3 -3 4 -12 1 -19z m-5445 -30 c-2
-10 -6 -18 -7 -18 -1 0 -5 8 -7 18 -3 11 0 19 7 19 7 0 10 -8 7 -19z m15 -33
c0 -8 -4 -12 -9 -9 -5 3 -6 10 -3 15 9 13 12 11 12 -6z m14 -52 c-12 -20 -14
-14 -5 12 4 9 9 14 11 11 3 -2 0 -13 -6 -23z m-1574 -65 c-3 -7 -5 -2 -5 12 0
14 2 19 5 13 2 -7 2 -19 0 -25z m1593 2 c6 -11 8 -20 6 -20 -3 0 -10 9 -16 20
-6 11 -8 20 -6 20 3 0 10 -9 16 -20z m5330 -5 c0 -8 -4 -15 -10 -15 -5 0 -7 7
-4 15 4 8 8 15 10 15 2 0 4 -7 4 -15z m-17 -40 c-3 -9 -8 -14 -10 -11 -3 3 -2
9 2 15 9 16 15 13 8 -4z m-5269 -33 c-5 -4 -12 -11 -15 -15 -3 -5 -9 -2 -12 5
-3 9 3 14 15 15 11 1 16 -1 12 -5z m5249 -7 c-3 -9 -8 -14 -10 -11 -3 3 -2 9
2 15 9 16 15 13 8 -4z m-5246 -40 c0 -8 -4 -12 -9 -9 -4 3 -8 9 -8 15 0 5 4 9
8 9 5 0 9 -7 9 -15z m5216 -21 c-10 -19 -19 -31 -21 -25 -3 9 26 61 34 61 2 0
-4 -16 -13 -36z m-5197 -19 c-1 -30 -12 -33 -19 -5 -3 11 -1 18 4 14 5 -3 9 0
9 5 0 6 2 11 4 11 2 0 3 -11 2 -25z m5167 -40 c-3 -9 -8 -14 -10 -11 -3 3 -2
9 2 15 9 16 15 13 8 -4z m-5146 -20 c0 -8 -4 -12 -9 -9 -5 3 -6 10 -3 15 9 13
12 11 12 -6z m5133 -9 c0 -2 -7 -9 -15 -16 -13 -11 -14 -10 -9 4 5 14 24 23
24 12z m-6833 -243 c-1 -43 -3 -8 -3 77 0 85 2 120 3 78 2 -43 2 -113 0 -155z
m1738 138 c-6 -5 -25 10 -25 20 0 5 6 4 14 -3 8 -7 12 -15 11 -17z m18 -68
c-4 -11 -3 -14 5 -9 8 5 10 2 6 -9 -4 -9 1 -21 11 -29 13 -9 15 -15 6 -20 -13
-8 -45 59 -36 74 10 16 15 11 8 -7z m31 -99 c3 -8 2 -12 -4 -9 -6 3 -10 10
-10 16 0 14 7 11 14 -7z m32 -89 c0 -15 -4 -21 -9 -16 -5 5 -7 17 -4 25 9 23
13 20 13 -9z m19 -35 c-3 -5 -12 -10 -18 -10 -7 0 -6 4 3 10 19 12 23 12 15 0z
m41 -151 c1 -25 -1 -28 -8 -15 -5 10 -7 24 -4 32 8 21 11 17 12 -17z m21 -64
c0 -20 -4 -19 -17 5 -8 15 -8 18 3 14 8 -3 14 -11 14 -19z m37 -121 c3 -8 2
-12 -4 -9 -6 3 -10 10 -10 16 0 14 7 11 14 -7z m26 -47 c11 -5 9 -6 -4 -4 -11
1 -21 9 -23 17 -3 10 -2 11 4 4 4 -6 15 -14 23 -17z m-675 -45 c-3 -3 -11 0
-18 7 -9 10 -8 11 6 5 10 -3 15 -9 12 -12z m692 -27 c0 -8 -4 -12 -9 -9 -4 3
-8 9 -8 15 0 5 4 9 8 9 5 0 9 -7 9 -15z m39 -111 c0 -24 -1 -24 -13 -8 -11 16
-7 28 13 34 0 0 0 -12 0 -26z m31 -80 c-3 -3 -12 -4 -19 -1 -8 3 -5 6 6 6 11
1 17 -2 13 -5z m652 -123 c0 -10 -2 -11 -6 -3 -2 6 -9 10 -14 6 -5 -3 -9 2 -9
10 0 10 6 13 15 10 8 -4 15 -14 14 -23z m-604 -20 c-6 -5 -25 10 -25 20 0 5 6
4 14 -3 8 -7 12 -15 11 -17z m652 -23 c-3 -8 -6 -5 -6 6 -1 11 2 17 5 13 3 -3
4 -12 1 -19z m1266 -43 c4 3 5 2 2 -2 -3 -3 3 -16 12 -27 10 -11 2 -7 -18 9
-20 17 -42 39 -49 50 -8 13 -2 10 17 -8 16 -15 32 -25 36 -22z m-1202 -8 c-10
-9 -11 -8 -5 6 3 10 9 15 12 12 3 -3 0 -11 -7 -18z m59 -19 c0 -14 -19 -18
-27 -6 -16 26 -12 38 8 25 10 -6 19 -15 19 -19z m-2723 -20 c-3 -8 -6 -5 -6 6
-1 11 2 17 5 13 3 -3 4 -12 1 -19z m1976 7 c-3 -9 -8 -14 -10 -11 -3 3 -2 9 2
15 9 16 15 13 8 -4z m1961 -21 c3 -8 2 -12 -4 -9 -6 3 -10 10 -10 16 0 14 7
11 14 -7z m-1939 -33 c-6 -5 -25 10 -25 20 0 5 6 4 14 -3 8 -7 12 -15 11 -17z
m1985 9 c8 -5 11 -10 5 -10 -5 0 -17 5 -25 10 -8 5 -10 10 -5 10 6 0 17 -5 25
-10z m-1150 -34 c0 -6 -5 -3 -11 7 -6 9 -15 14 -21 11 -7 -4 -8 -2 -4 5 9 14
36 -3 36 -23z m1280 -32 c0 -2 -11 2 -25 8 -14 6 -25 15 -25 20 0 5 11 1 25
-8 14 -9 25 -18 25 -20z m-2083 -32 c0 -11 -4 -10 -14 4 -7 10 -13 22 -13 26
0 5 6 3 13 -4 8 -7 14 -19 14 -26z m920 -12 c4 -12 3 -13 -5 -1 -5 7 -14 11
-19 8 -5 -3 -15 -2 -23 3 -11 7 -6 9 14 7 16 -1 31 -9 33 -17z m2658 11 c3 -5
2 -12 -3 -15 -5 -3 -9 1 -9 9 0 17 3 19 12 6z m-3558 -41 c-3 -11 -1 -20 5
-20 5 0 6 -5 2 -11 -10 -16 -26 15 -18 35 9 23 17 20 11 -4z m1038 -58 c-3 -3
-11 0 -18 7 -9 10 -8 11 6 5 10 -3 15 -9 12 -12z m-1027 -23 c-3 -8 -7 -3 -11
10 -4 17 -3 21 5 13 5 -5 8 -16 6 -23z m2072 6 c0 -8 -2 -15 -4 -15 -2 0 -6 7
-10 15 -3 8 -1 15 4 15 6 0 10 -7 10 -15z m4391 -88 c-10 -9 -11 -8 -5 6 3 10
9 15 12 12 3 -3 0 -11 -7 -18z m-3956 -137 c4 -6 2 -9 -4 -8 -5 2 -16 -6 -24
-16 -11 -16 -15 -16 -22 -5 -5 8 -5 11 0 7 5 -5 14 1 22 12 16 23 19 24 28 10z
m-8 -39 c0 -11 -5 -18 -9 -15 -4 3 -5 11 -1 19 7 21 12 19 10 -4z m-3003 -136
c20 -30 16 -31 -12 -6 -12 10 -19 21 -15 25 9 9 9 9 27 -19z m36 -55 c6 -11 8
-20 6 -20 -3 0 -10 9 -16 20 -6 11 -8 20 -6 20 3 0 10 -9 16 -20z m40 -73 c0
-5 -7 -2 -15 7 -8 8 -15 20 -15 27 0 14 29 -20 30 -34z m30 -41 c0 -3 -4 -8
-10 -11 -5 -3 -10 -1 -10 4 0 6 5 11 10 11 6 0 10 -2 10 -4z m7 -31 c0 -8 -4
-12 -9 -9 -5 3 -6 10 -3 15 9 13 12 11 12 -6z m59 -81 c1 -9 0 -13 -4 -10 -3
4 -7 14 -8 22 -1 9 0 13 4 10 3 -4 7 -14 8 -22z m75 -75 c7 -15 6 -17 -5 -13
-9 3 -14 11 -13 17 1 7 -3 11 -9 10 -6 -1 -11 5 -11 12 0 18 23 2 38 -26z m9
-39 c0 -5 -2 -10 -4 -10 -3 0 -8 5 -11 10 -3 6 -1 10 4 10 6 0 11 -4 11 -10z
m-259 -57 c12 -16 12 -17 -2 -6 -9 7 -20 9 -24 5 -5 -4 -5 -1 -1 6 9 16 11 15
27 -5z m-1067 -69 c3 -8 2 -12 -4 -9 -6 3 -10 10 -10 16 0 14 7 11 14 -7z
m862 -53 c-4 -5 0 -11 6 -14 7 -3 3 -4 -9 -4 -17 1 -19 4 -11 14 12 15 22 18
14 4z m-46 -96 c0 -2 -9 -3 -19 -2 -11 0 -18 5 -15 9 4 6 34 0 34 -7z m-540
-281 c0 -9 -33 5 -41 17 -16 26 -9 29 16 7 14 -12 25 -23 25 -24z m1827 11 c0
-8 -4 -12 -9 -9 -5 3 -6 10 -3 15 9 13 12 11 12 -6z m5763 -48 c0 -7 -4 -6
-10 3 -9 14 -14 7 -11 -13 1 -5 -3 -6 -9 -2 -8 5 -8 11 1 21 12 15 29 10 29
-9z m-36 -26 c3 -5 -1 -14 -9 -21 -8 -7 -15 -9 -15 -5 0 5 -9 0 -19 -9 -11
-10 -18 -23 -15 -30 2 -6 -13 -31 -34 -55 -31 -35 -40 -41 -45 -28 -4 12 -2
14 10 10 12 -5 15 -2 10 10 -4 10 -2 16 6 14 7 -1 11 4 10 11 -2 6 2 11 8 10
6 -2 13 5 14 15 3 18 55 85 67 86 4 1 9 -3 12 -8z m-7087 -43 c-3 -7 -5 -2 -5
12 0 14 2 19 5 13 2 -7 2 -19 0 -25z m-393 -17 c-2 -3 -12 3 -22 13 -16 17
-16 18 5 5 12 -7 20 -15 17 -18z m68 -60 c8 11 9 10 4 -5 -4 -11 -2 -23 5 -26
6 -4 7 -10 3 -12 -5 -3 -20 9 -34 26 -14 18 -17 25 -7 17 16 -13 20 -13 29 0z
m7362 -12 c-3 -5 -10 -7 -15 -3 -5 3 -7 10 -3 15 3 5 10 7 15 3 5 -3 7 -10 3
-15z m-99 -36 c-2 -10 -4 -22 -4 -28 -1 -5 -5 -4 -10 4 -10 15 -4 41 9 41 5 0
7 -8 5 -17z m-60 -60 c-2 -10 -4 -19 -4 -21 -1 -2 -6 0 -11 3 -8 5 -7 11 1 21
15 18 18 18 14 -3z m-7074 -65 c5 1 8 -3 7 -10 -2 -7 2 -12 9 -13 15 0 26 -12
29 -31 3 -21 -34 13 -88 81 -39 49 -39 49 -3 10 20 -22 41 -39 46 -37z m7039
38 c0 -2 -8 -10 -17 -17 -16 -13 -17 -12 -4 4 13 16 21 21 21 13z m20 -16 c0
-5 -5 -10 -11 -10 -5 0 -7 5 -4 10 3 6 8 10 11 10 2 0 4 -4 4 -10z m-6700 -45
c19 -19 32 -35 29 -35 -3 0 -20 16 -39 35 -19 19 -32 35 -29 35 3 0 20 -16 39
-35z m6637 -7 c-19 -25 -19 -30 -7 -39 13 -9 13 -10 0 -6 -16 4 -21 44 -8 63
4 6 14 11 22 11 11 0 9 -8 -7 -29z m-41 -23 c-1 -8 -12 -26 -23 -39 -12 -13
-20 -27 -17 -30 2 -3 -1 -2 -8 4 -8 7 -18 4 -32 -8 -27 -22 19 33 54 64 30 28
29 28 26 9z m-6493 -93 c19 -35 23 -49 13 -49 -8 0 -12 6 -9 14 4 9 0 11 -11
7 -9 -3 -13 -11 -9 -17 3 -6 1 -7 -5 -3 -17 10 -15 26 3 26 20 0 19 13 -3 40
l-19 23 -19 -21 c-19 -20 -20 -20 -20 -2 0 10 3 17 6 15 3 -2 12 0 20 6 23 14
25 12 53 -39z m-252 -77 c3 3 6 -2 6 -10 0 -8 -1 -15 -2 -15 0 0 -25 26 -55
57 l-55 58 51 -48 c27 -26 53 -45 55 -42z m6635 70 c-3 -8 -1 -15 4 -15 6 0
10 5 10 12 0 6 3 8 6 5 8 -8 -14 -37 -28 -37 -5 0 -6 5 -3 10 3 6 1 10 -5 10
-7 0 -6 5 2 15 17 19 22 19 14 0z m-5305 -22 c-12 -20 -14 -14 -5 12 4 9 9 14
11 11 3 -2 0 -13 -6 -23z m5496 -32 c0 -10 -7 -18 -14 -18 -10 0 -10 4 -3 11
15 15 12 29 -4 23 -10 -4 -13 -1 -9 9 7 20 32 -1 30 -25z m-252 -21 c-9 -10
-23 -16 -31 -13 -9 3 -12 0 -9 -9 3 -8 -1 -21 -9 -28 -9 -7 -13 -17 -9 -23 3
-5 1 -7 -4 -4 -6 4 -18 -2 -27 -12 -18 -19 -39 -22 -53 -6 -4 4 -2 5 5 1 6 -4
12 -2 12 4 0 17 52 56 68 52 7 -2 12 3 10 11 -3 16 42 58 55 50 5 -3 1 -13 -8
-23z m-6305 8 c0 -4 -4 -8 -9 -8 -6 0 -12 4 -15 8 -3 5 1 9 9 9 8 0 15 -4 15
-9z m6158 -139 c-7 -5 -9 -9 -4 -9 5 0 3 -7 -4 -15 -7 -8 -17 -12 -23 -8 -6 4
-8 -2 -5 -14 3 -12 2 -26 -2 -33 -4 -7 -8 -1 -8 16 0 16 5 35 10 42 6 6 7 12
3 12 -4 0 -2 6 5 14 6 8 18 12 27 9 12 -5 12 -7 1 -14z m237 -9 c-3 -5 -1 -10
4 -10 6 0 11 -4 11 -9 0 -5 -9 -7 -20 -4 -16 4 -18 8 -9 19 13 16 23 19 14 4z
m-294 -13 c-6 -8 -8 -17 -5 -20 6 -6 -24 -42 -35 -42 -3 0 -5 -4 -3 -8 1 -5
-2 -6 -7 -3 -5 4 -11 3 -14 -1 -2 -5 -2 -2 0 5 1 8 -3 12 -9 9 -7 -2 -12 -11
-10 -20 1 -8 -2 -18 -8 -22 -5 -3 -10 -1 -10 4 0 6 -4 11 -10 11 -5 0 -9 -5
-7 -12 1 -7 -4 -13 -10 -14 -7 -1 -17 -2 -23 -3 -5 0 -10 -9 -9 -18 0 -11 3
-13 6 -5 7 19 35 15 31 -5 -2 -12 -13 -18 -30 -18 -19 -1 -25 3 -21 15 3 8 -4
4 -14 -9 -11 -12 -19 -35 -18 -50 1 -20 -3 -27 -16 -27 -17 0 -17 2 -3 18 16
17 12 38 -7 38 -6 0 -7 -5 -3 -12 5 -7 3 -8 -6 -3 -11 7 -10 11 6 21 10 7 69
51 129 98 113 87 126 96 106 73z m-266 -197 c-3 -5 0 -10 7 -11 10 0 10 -2 0
-6 -6 -2 -9 -10 -5 -16 3 -7 3 -9 -2 -5 -4 4 -14 3 -22 -4 -11 -8 -17 -8 -26
2 -8 9 -9 14 -1 17 6 2 20 10 30 18 23 17 27 18 19 5z m320 -10 c-3 -5 -12
-10 -18 -10 -7 0 -6 4 3 10 19 12 23 12 15 0z m-380 -39 c3 -5 2 -12 -3 -15
-5 -3 -9 1 -9 9 0 17 3 19 12 6z m-4048 -7 c-3 -3 -12 -4 -19 -1 -8 3 -5 6 6
6 11 1 17 -2 13 -5z m63 -20 c0 -2 -7 -4 -15 -4 -8 0 -15 4 -15 10 0 5 7 7 15
4 8 -4 15 -8 15 -10z m3933 -16 c25 6 22 0 -8 -16 -18 -9 -21 -7 -22 11 0 12
1 17 3 11 3 -7 15 -9 27 -6z m-53 -18 c-8 -6 -11 -10 -6 -10 5 0 3 -7 -4 -15
-10 -12 -16 -13 -24 -5 -8 8 -4 16 14 30 14 10 27 16 30 14 2 -3 -2 -9 -10
-14z m-3765 0 c13 -5 14 -9 5 -9 -8 0 -24 4 -35 9 -13 5 -14 9 -5 9 8 0 24 -4
35 -9z m3710 -30 c-3 -5 0 -10 7 -10 7 0 -7 -12 -32 -27 -25 -15 -47 -30 -50
-34 -9 -13 -43 -14 -46 -1 -1 7 0 8 3 2 3 -7 11 -6 24 1 11 5 17 14 14 19 -3
5 4 14 16 20 15 8 19 9 15 1 -4 -6 -2 -11 3 -11 6 0 11 7 11 15 0 7 8 19 18
24 22 13 25 13 17 1z m362 -11 c-9 -6 -14 -15 -11 -21 4 -7 2 -8 -5 -4 -14 9
3 36 23 36 6 0 3 -5 -7 -11z m-3910 -5 c-3 -3 -12 -4 -19 -1 -8 3 -5 6 6 6 11
1 17 -2 13 -5z m108 -32 c-3 -3 -11 0 -18 7 -9 10 -8 11 6 5 10 -3 15 -9 12
-12z m3301 -54 c-22 -12 -20 -29 2 -22 13 5 14 4 3 -4 -10 -7 -21 -6 -36 4
-12 8 -25 11 -28 7 -4 -3 -7 -3 -7 0 0 12 54 35 68 29 12 -4 11 -7 -2 -14z
m-85 -27 c-7 -5 -10 -14 -7 -20 4 -6 2 -11 -3 -11 -12 0 -15 23 -4 33 3 4 11
7 17 7 6 0 5 -4 -3 -9z m39 -5 c0 -2 -7 -7 -16 -10 -8 -3 -12 -2 -9 4 6 10 25
14 25 6z m321 -29 c-10 -9 -11 -8 -5 6 3 10 9 15 12 12 3 -3 0 -11 -7 -18z
m-17 -15 c3 -5 -1 -9 -9 -9 -8 0 -12 4 -9 9 3 4 7 8 9 8 2 0 6 -4 9 -8z m-442
-16 c7 4 8 2 4 -5 -9 -13 -26 -5 -25 12 0 9 2 8 6 -1 2 -6 10 -9 15 -6z m33 4
c3 -5 1 -10 -4 -10 -6 0 -11 5 -11 10 0 6 2 10 4 10 3 0 8 -4 11 -10z m-67
-23 c14 4 14 3 2 -5 -16 -12 -30 -7 -29 11 0 9 2 9 5 0 3 -7 13 -9 22 -6z
m-87 -26 c-21 -11 -29 -20 -21 -23 11 -3 10 -6 -4 -11 -10 -4 -15 -3 -11 3 3
6 -2 10 -12 10 -10 0 0 9 22 19 51 25 71 26 26 2z m-51 -35 c0 -2 -8 -10 -17
-17 -16 -13 -17 -12 -4 4 13 16 21 21 21 13z m-68 -15 c8 11 9 11 6 1 -4 -16
-22 -18 -25 -3 -1 8 0 7 4 0 4 -8 8 -7 15 2z m-139 -77 c-49 -24 -75 -25 -81
-3 -3 11 -1 11 7 -1 10 -13 11 -13 11 0 0 10 3 11 8 3 5 -8 18 -6 47 7 27 13
33 19 20 20 -16 0 -17 2 -6 9 9 6 19 5 27 -2 10 -10 3 -17 -33 -33z m529 19
c-6 -2 -10 -9 -7 -13 3 -5 1 -11 -4 -14 -7 -5 -8 11 -2 32 1 1 7 2 14 1 9 0 9
-2 -1 -6z m-619 -37 c6 -15 -17 -16 -30 -1 -4 4 -2 5 5 1 6 -4 12 -2 12 3 0
15 7 14 13 -3z m-79 -22 c3 -8 2 -12 -4 -9 -6 3 -10 10 -10 16 0 14 7 11 14
-7z m591 6 c-3 -5 -12 -10 -18 -10 -7 0 -6 4 3 10 19 12 23 12 15 0z m-630
-21 c11 -16 1 -19 -13 -3 -7 8 -8 14 -3 14 5 0 13 -5 16 -11z m-68 -15 c-3 -3
-12 -4 -19 -1 -8 3 -5 6 6 6 11 1 17 -2 13 -5z m48 -4 c-3 -5 -12 -10 -18 -10
-7 0 -6 4 3 10 19 12 23 12 15 0z m-93 -7 c-6 -2 -10 -8 -7 -12 2 -5 -8 -6
-23 -3 -24 5 -24 6 -7 13 11 4 27 8 35 8 10 -1 11 -2 2 -6z m-92 -21 c0 -8
-111 -35 -117 -28 -2 2 22 10 54 19 32 8 59 15 61 16 1 1 2 -3 2 -7z m35 -2
c3 -6 -1 -7 -9 -4 -18 7 -21 14 -7 14 6 0 13 -4 16 -10z m-165 -30 c0 -5 -10
-10 -22 -9 -22 0 -22 1 -3 9 11 5 21 9 23 9 1 1 2 -3 2 -9z m-57 -17 c-7 -2
-19 -2 -25 0 -7 3 -2 5 12 5 14 0 19 -2 13 -5z m-50 -10 c-7 -2 -19 -2 -25 0
-7 3 -2 5 12 5 14 0 19 -2 13 -5z m-98 -13 c-3 -5 -18 -9 -33 -9 l-27 1 30 8
c17 4 31 8 33 9 2 0 0 -3 -3 -9z m59 1 c3 -4 -6 -6 -19 -3 -14 2 -25 6 -25 8
0 8 39 4 44 -5z m-131 -18 c-7 -2 -21 -2 -30 0 -10 3 -4 5 12 5 17 0 24 -2 18
-5z m-70 -10 c-7 -2 -21 -2 -30 0 -10 3 -4 5 12 5 17 0 24 -2 18 -5z m-58 -8
c-23 -8 -83 -10 -79 -3 3 4 24 8 47 7 23 0 38 -2 32 -4z m-112 -12 c-13 -2
-33 -2 -45 0 -13 2 -3 4 22 4 25 0 35 -2 23 -4z m-380 -10 c-24 -2 -62 -2 -85
0 -24 2 -5 4 42 4 47 0 66 -2 43 -4z m170 0 c-18 -2 -48 -2 -65 0 -18 2 -4 4
32 4 36 0 50 -2 33 -4z m110 0 c-13 -2 -35 -2 -50 0 -16 2 -5 4 22 4 28 0 40
-2 28 -4z m727 -127 c0 -2 -7 -7 -16 -10 -8 -3 -12 -2 -9 4 6 10 25 14 25 6z
m-485 -116 c3 -6 -1 -7 -9 -4 -18 7 -21 14 -7 14 6 0 13 -4 16 -10z"/>
<path d="M6478 8077 c7 -8 8 -18 4 -22 -4 -5 -1 -5 6 -1 17 10 15 23 -4 30
-13 5 -14 4 -6 -7z"/>
<path d="M6545 8035 c35 -29 52 -35 52 -20 0 8 -4 12 -8 9 -5 -3 -21 3 -36 12
-26 15 -27 15 -8 -1z"/>
<path d="M6660 7961 c0 -10 39 -46 43 -40 2 2 -7 14 -20 26 -13 12 -23 19 -23
14z"/>
<path d="M6773 7845 c0 -8 4 -12 9 -9 5 3 6 10 3 15 -9 13 -12 11 -12 -6z"/>
<path d="M8370 7803 c0 -6 8 -17 18 -24 16 -13 16 -13 2 6 -8 11 -16 22 -17
24 -2 2 -3 0 -3 -6z"/>
<path d="M6853 7765 c0 -8 4 -12 9 -9 5 3 6 10 3 15 -9 13 -12 11 -12 -6z"/>
<path d="M6890 7736 c0 -2 8 -10 18 -17 15 -13 16 -12 3 4 -13 16 -21 21 -21
13z"/>
<path d="M6930 7685 c7 -8 17 -15 22 -15 5 0 3 7 -6 15 -8 8 -18 15 -22 15 -3
0 -1 -7 6 -15z"/>
<path d="M3820 7577 c0 -2 15 -16 33 -33 l32 -29 -29 33 c-28 30 -36 37 -36
29z"/>
<path d="M4050 7416 c0 -3 9 -10 20 -16 11 -6 20 -8 20 -6 0 3 -9 10 -20 16
-11 6 -20 8 -20 6z"/>
<path d="M6386 6387 c-32 -19 -46 -38 -89 -129 -28 -59 -54 -105 -57 -103 -3
2 -5 -12 -5 -30 1 -19 -2 -32 -5 -30 -8 5 -116 -234 -114 -252 1 -7 -2 -11 -5
-8 -12 7 -43 -66 -46 -112 -3 -31 2 -50 19 -75 13 -18 28 -32 35 -30 7 1 10
-2 6 -7 -19 -31 106 -48 146 -20 14 10 29 15 33 11 4 -4 6 0 4 8 -2 8 3 14 10
12 8 -1 11 2 8 7 -6 9 127 289 142 301 7 5 12 27 15 62 1 9 4 15 8 12 4 -2 15
16 25 41 9 25 30 66 45 90 15 24 34 66 43 93 13 46 13 52 -7 93 -11 24 -19 48
-18 52 1 5 -3 6 -9 2 -8 -5 -7 -12 2 -23 12 -15 11 -16 -4 -3 -10 7 -15 17
-13 22 9 14 -51 39 -92 39 -21 0 -55 -10 -77 -23z"/>
<path d="M7731 6384 c0 -11 3 -14 6 -6 3 7 2 16 -1 19 -3 4 -6 -2 -5 -13z"/>
<path d="M7135 6021 c-3 -5 -2 -12 3 -15 5 -3 9 1 9 9 0 17 -3 19 -12 6z"/>
<path d="M7202 5933 c25 -27 25 -27 25 -9 0 8 -5 14 -11 13 -6 -1 -10 3 -9 9
1 6 -5 11 -13 11 -10 0 -9 -7 8 -24z"/>
<path d="M3668 5673 c7 -3 16 -2 19 1 4 3 -2 6 -13 5 -11 0 -14 -3 -6 -6z"/>
<path d="M5098 5543 c7 -3 16 -2 19 1 4 3 -2 6 -13 5 -11 0 -14 -3 -6 -6z"/>
<path d="M2770 5328 c0 -7 7 -35 16 -63 8 -27 17 -57 19 -65 2 -8 15 -53 28
-100 14 -47 35 -121 47 -165 11 -44 23 -87 25 -95 6 -22 45 -162 50 -182 3
-10 7 -26 10 -35 3 -10 15 -60 27 -110 l22 -93 332 0 332 0 -33 158 c-18 87
-35 183 -39 213 -3 30 -9 79 -12 109 -4 30 -12 61 -18 69 -9 12 -8 13 3 7 10
-6 12 -4 8 10 -6 20 -12 63 -23 149 -3 28 -11 53 -18 57 -7 5 -6 8 4 8 9 0 11
3 5 8 -5 4 -10 23 -10 42 l0 35 -70 7 c-68 7 -660 48 -690 48 -8 0 -15 -6 -15
-12z m488 -93 c-3 -3 -9 2 -12 12 -6 14 -5 15 5 6 7 -7 10 -15 7 -18z m323
-462 c13 -16 12 -17 -3 -4 -17 13 -22 21 -14 21 2 0 10 -8 17 -17z"/>
<path d="M3995 5253 c6 -4 11 -37 12 -72 1 -41 6 -67 15 -72 10 -7 10 -9 -2
-9 -9 0 -11 -3 -5 -8 6 -4 11 -25 11 -47 2 -47 13 -143 19 -165 2 -8 7 -37 10
-65 3 -27 8 -59 10 -70 2 -11 4 -33 4 -48 1 -20 5 -26 14 -21 9 5 9 4 1 -5 -6
-6 -9 -25 -6 -41 4 -27 8 -30 41 -31 34 0 94 -6 151 -14 14 -2 37 -4 53 -4 27
-1 27 -1 27 -76 l0 -74 -117 -4 c-65 -1 13 -4 173 -5 l292 -2 6 88 c3 48 10
184 16 302 5 118 12 256 15 307 l5 92 -27 -1 c-38 -1 -183 9 -388 27 -259 23
-341 27 -330 18z"/>
<path d="M5149 5028 c-1 -56 -4 -216 -8 -355 l-6 -252 192 -3 192 -3 12 50 c6
28 27 105 46 173 19 68 32 130 29 138 -3 9 -1 12 4 9 6 -3 10 0 10 8 0 7 9 42
21 77 11 35 21 71 22 82 1 10 6 18 11 18 5 0 7 2 4 6 -3 3 1 26 8 51 8 25 14
49 14 53 0 7 -180 26 -210 22 -8 -1 -37 3 -65 8 -27 5 -101 12 -162 16 l-113
6 -1 -104z"/>
<path d="M6942 4850 c0 -19 2 -27 5 -17 2 9 2 25 0 35 -3 9 -5 1 -5 -18z"/>
<path d="M7349 4693 l-34 -38 38 34 c34 33 42 41 34 41 -2 0 -19 -17 -38 -37z"/>
<path d="M7295 4639 c-4 -6 -5 -12 -2 -15 2 -3 7 2 10 11 7 17 1 20 -8 4z"/>
<path d="M4101 4434 c0 -11 3 -14 6 -6 3 7 2 16 -1 19 -3 4 -6 -2 -5 -13z"/>
<path d="M9091 3924 c0 -11 3 -14 6 -6 3 7 2 16 -1 19 -3 4 -6 -2 -5 -13z"/>
<path d="M9025 3729 c-4 -6 -5 -12 -2 -15 2 -3 7 2 10 11 7 17 1 20 -8 4z"/>
<path d="M5318 2703 c6 -2 18 -2 25 0 6 3 1 5 -13 5 -14 0 -19 -2 -12 -5z"/>
<path d="M2280 2696 c0 -2 7 -6 15 -10 8 -3 15 -1 15 4 0 6 -7 10 -15 10 -8 0
-15 -2 -15 -4z"/>
<path d="M5730 2586 c0 -2 8 -10 18 -17 15 -13 16 -12 3 4 -13 16 -21 21 -21
13z"/>
<path d="M5834 2449 c45 -80 67 -164 67 -252 0 -101 -17 -169 -62 -242 -38
-64 -120 -155 -138 -155 -7 0 -9 -5 -6 -10 4 -6 3 -9 -2 -8 -4 1 -33 -10 -63
-25 -31 -15 -67 -30 -80 -33 -38 -10 -239 -20 -234 -12 2 3 -10 9 -27 13 -17
4 -51 16 -76 27 -25 11 -47 17 -50 14 -4 -3 -1 -6 5 -6 7 0 26 -23 43 -50 17
-28 35 -48 40 -45 5 4 6 0 3 -8 -6 -17 59 -90 71 -80 4 5 5 3 2 -3 -7 -12 34
-53 72 -74 12 -6 18 -16 15 -22 -4 -7 -2 -8 5 -4 6 4 18 3 25 -3 57 -48 265
-74 377 -47 82 19 181 64 172 79 -3 6 -1 7 6 3 15 -10 43 13 34 27 -3 6 -1 7
5 3 7 -4 12 -2 12 3 0 6 7 11 15 11 8 0 28 18 46 40 18 22 36 37 42 33 6 -4 7
-1 3 6 -5 7 -1 20 8 29 25 29 64 123 76 189 14 71 0 205 -27 256 -8 16 -12 35
-9 43 3 9 1 12 -4 9 -9 -6 -14 8 -11 28 1 5 -3 6 -9 2 -5 -3 -10 -1 -10 5 0 6
-4 9 -9 6 -4 -3 -7 6 -5 20 1 14 0 23 -3 20 -3 -3 -12 2 -20 12 -8 9 -11 11
-7 3 4 -9 3 -12 -4 -7 -6 4 -8 14 -5 23 5 12 3 14 -8 8 -12 -8 -12 -6 -1 8 12
14 11 16 -6 12 -16 -3 -20 1 -17 17 4 17 2 18 -12 6 -9 -7 -14 -8 -10 -2 3 6
-3 18 -14 27 -23 20 -33 22 -23 5 5 -9 2 -9 -9 1 -20 16 -23 26 -4 15 8 -5 7
-2 -2 10 -8 9 -20 15 -27 12 -8 -3 -13 0 -11 7 1 7 -6 11 -15 11 -10 -1 -16 2
-13 6 7 11 -74 42 -87 34 -7 -4 -8 -2 -4 4 4 7 2 12 -4 12 -6 0 -8 6 -4 13 4
6 4 9 -1 5 -4 -4 -14 -3 -22 3 -7 6 -2 -8 11 -32z"/>
<path d="M4388 2343 c7 -3 16 -2 19 1 4 3 -2 6 -13 5 -11 0 -14 -3 -6 -6z"/>
<path d="M4858 2343 c7 -3 16 -2 19 1 4 3 -2 6 -13 5 -11 0 -14 -3 -6 -6z"/>
<path d="M4952 2325 c0 -16 2 -22 5 -12 2 9 2 23 0 30 -3 6 -5 -1 -5 -18z"/>
<path d="M4932 2130 c0 -14 2 -19 5 -12 2 6 2 18 0 25 -3 6 -5 1 -5 -13z"/>
<path d="M7999 2133 c-13 -16 -12 -17 4 -4 16 13 21 21 13 21 -2 0 -10 -8 -17
-17z"/>
<path d="M8369 1763 l-24 -28 28 24 c15 14 27 26 27 28 0 8 -8 1 -31 -24z"/>
<path d="M8219 1623 c-13 -16 -12 -17 4 -4 16 13 21 21 13 21 -2 0 -10 -8 -17
-17z"/>
<path d="M8142 1557 c-31 -33 -27 -43 5 -13 15 14 25 28 22 31 -3 3 -15 -5
-27 -18z"/>
<path d="M8069 1498 c-5 -18 -6 -38 -1 -34 7 8 12 36 6 36 -2 0 -4 -1 -5 -2z"/>
<path d="M7989 1429 l-24 -20 28 17 c15 9 27 18 27 20 0 8 -8 4 -31 -17z"/>
<path d="M7725 1240 c-3 -5 -1 -10 4 -10 6 0 11 5 11 10 0 6 -2 10 -4 10 -3 0
-8 -4 -11 -10z"/>
<path d="M7570 1139 c0 -5 5 -7 10 -4 6 3 10 8 10 11 0 2 -4 4 -10 4 -5 0 -10
-5 -10 -11z"/>
<path d="M7380 1030 c-9 -6 -10 -10 -3 -10 6 0 15 5 18 10 8 12 4 12 -15 0z"/>
<path d="M9616 6294 c-8 -20 0 -32 14 -18 5 5 5 15 1 22 -6 11 -10 10 -15 -4z"/>
<path d="M9620 6257 c0 -2 6 -10 14 -16 11 -9 16 -9 22 1 4 7 4 10 -1 6 -4 -4
-14 -3 -22 3 -7 6 -13 9 -13 6z"/>
<path d="M9657 6215 c-9 -21 1 -38 15 -29 8 5 9 1 5 -10 -4 -10 -3 -15 3 -11
6 3 10 1 10 -6 0 -7 3 -10 6 -7 3 4 -3 23 -14 43 -15 30 -20 34 -25 20z"/>
<path d="M9710 6115 c0 -5 5 -17 10 -25 5 -8 10 -10 10 -5 0 6 -5 17 -10 25
-5 8 -10 11 -10 5z"/>
<path d="M9631 6084 c0 -11 3 -14 6 -6 3 7 2 16 -1 19 -3 4 -6 -2 -5 -13z"/>
<path d="M9738 6022 c-4 -14 -2 -20 5 -15 7 4 8 0 3 -13 -5 -14 -4 -16 4 -8 7
7 7 19 2 34 l-9 24 -5 -22z"/>
<path d="M9755 5970 c-3 -5 -1 -10 4 -10 6 0 11 5 11 10 0 6 -2 10 -4 10 -3 0
-8 -4 -11 -10z"/>
<path d="M9769 5921 c11 -7 11 -9 0 -14 -10 -4 -9 -6 4 -6 9 -1 17 6 17 14 0
8 -8 15 -17 15 -14 0 -15 -2 -4 -9z"/>
<path d="M9831 5754 c0 -11 3 -14 6 -6 3 7 2 16 -1 19 -3 4 -6 -2 -5 -13z"/>
<path d="M9841 5714 c0 -11 3 -14 6 -6 3 7 2 16 -1 19 -3 4 -6 -2 -5 -13z"/>
<path d="M9846 5652 c6 -4 14 -14 17 -22 4 -10 6 -8 6 8 1 15 -5 22 -16 22
-11 0 -14 -3 -7 -8z"/>
<path d="M9871 5594 c0 -11 3 -14 6 -6 3 7 2 16 -1 19 -3 4 -6 -2 -5 -13z"/>
<path d="M9882 5550 c0 -14 2 -19 5 -12 2 6 2 18 0 25 -3 6 -5 1 -5 -13z"/>
<path d="M9891 5484 c0 -11 3 -14 6 -6 3 7 2 16 -1 19 -3 4 -6 -2 -5 -13z"/>
<path d="M9901 5424 c0 -11 3 -14 6 -6 3 7 2 16 -1 19 -3 4 -6 -2 -5 -13z"/>
<path d="M9912 5350 c0 -14 2 -19 5 -12 2 6 2 18 0 25 -3 6 -5 1 -5 -13z"/>
<path d="M9910 5309 c0 -5 5 -7 10 -4 6 3 10 8 10 11 0 2 -4 4 -10 4 -5 0 -10
-5 -10 -11z"/>
<path d="M9920 5253 c0 -24 3 -33 9 -25 7 12 4 62 -5 62 -2 0 -4 -17 -4 -37z"/>
<path d="M9753 5150 c0 -36 2 -50 4 -32 2 17 2 47 0 65 -2 17 -4 3 -4 -33z"/>
<path d="M9933 5135 c0 -44 2 -61 4 -37 2 23 2 59 0 80 -2 20 -4 1 -4 -43z"/>
<path d="M9934 5037 c-2 -7 -3 -105 -2 -217 l3 -205 5 218 c3 119 4 217 2 217
-1 0 -5 -6 -8 -13z"/>
<path d="M9921 4544 c0 -11 3 -14 6 -6 3 7 2 16 -1 19 -3 4 -6 -2 -5 -13z"/>
<path d="M9894 4406 c-3 -8 -4 -25 -2 -38 3 -17 5 -13 9 15 5 38 2 47 -7 23z"/>
<path d="M9881 4308 c0 -9 -4 -25 -7 -35 -5 -17 -5 -17 6 0 6 10 9 25 7 35 -4
15 -5 15 -6 0z"/>
<path d="M9852 4150 c0 -14 2 -19 5 -12 2 6 2 18 0 25 -3 6 -5 1 -5 -13z"/>
<path d="M9832 4060 c0 -14 2 -19 5 -12 2 6 2 18 0 25 -3 6 -5 1 -5 -13z"/>
<path d="M9811 3994 c0 -11 3 -14 6 -6 3 7 2 16 -1 19 -3 4 -6 -2 -5 -13z"/>
<path d="M9792 3900 c0 -14 2 -19 5 -12 2 6 2 18 0 25 -3 6 -5 1 -5 -13z"/>
<path d="M9766 3824 c-4 -14 -5 -28 -3 -31 3 -2 8 8 11 23 4 14 5 28 3 31 -3
2 -8 -8 -11 -23z"/>
<path d="M9735 3720 c-4 -17 -5 -34 -2 -36 2 -3 7 10 11 27 8 42 0 50 -9 9z"/>
<path d="M9715 3639 c-4 -6 -5 -12 -2 -15 2 -3 7 2 10 11 7 17 1 20 -8 4z"/>
<path d="M9671 3533 c-1 -6 -4 -20 -7 -30 -5 -17 -5 -17 6 0 6 10 9 23 6 30
-3 9 -5 9 -5 0z"/>
<path d="M9641 3449 c-6 -18 -9 -34 -7 -36 2 -2 9 10 15 28 6 18 9 34 7 36 -2
2 -9 -10 -15 -28z"/>
<path d="M9576 3265 c-3 -9 -6 -22 -5 -28 0 -7 5 -1 10 12 5 13 8 26 5 28 -2
2 -6 -3 -10 -12z"/>
<path d="M9506 3105 c-9 -26 -7 -32 5 -12 6 10 9 21 6 23 -2 3 -7 -2 -11 -11z"/>
<path d="M9315 3099 c-4 -6 -5 -12 -2 -15 2 -3 7 2 10 11 7 17 1 20 -8 4z"/>
<path d="M9275 3019 c-4 -6 -5 -12 -2 -15 2 -3 7 2 10 11 7 17 1 20 -8 4z"/>
<path d="M9461 2993 c-10 -26 -10 -27 4 -9 8 11 15 23 15 28 0 15 -7 8 -19
-19z"/>
<path d="M9215 2899 c-4 -6 -5 -12 -2 -15 2 -3 7 2 10 11 7 17 1 20 -8 4z"/>
<path d="M9398 2873 c7 -3 16 -2 19 1 4 3 -2 6 -13 5 -11 0 -14 -3 -6 -6z"/>
<path d="M9185 2840 c-9 -16 -13 -30 -11 -30 3 0 12 14 21 30 9 17 13 30 11
30 -3 0 -12 -13 -21 -30z"/>
<path d="M9358 2793 c7 -3 16 -2 19 1 4 3 -2 6 -13 5 -11 0 -14 -3 -6 -6z"/>
<path d="M9323 2725 c0 -8 4 -12 9 -9 5 3 6 10 3 15 -9 13 -12 11 -12 -6z"/>
<path d="M9277 2653 c-10 -9 -9 -23 1 -23 5 0 9 7 9 15 0 17 -1 18 -10 8z"/>
<path d="M9065 2619 c-4 -6 -5 -12 -2 -15 2 -3 7 2 10 11 7 17 1 20 -8 4z"/>
<path d="M9235 2569 c-4 -6 -5 -12 -2 -15 2 -3 7 2 10 11 7 17 1 20 -8 4z"/>
<path d="M9191 2507 c-8 -10 -7 -14 4 -14 8 0 12 4 9 8 -2 4 2 10 8 12 8 4 9
6 2 6 -6 1 -17 -5 -23 -12z"/>
<path d="M8975 2482 l-16 -27 19 22 c22 25 39 19 20 -6 -8 -10 -4 -9 10 3 12
11 20 22 17 25 -14 14 -36 7 -50 -17z"/>
<path d="M9151 2438 c-11 -30 -4 -36 14 -12 17 23 19 34 5 34 -6 0 -14 -10
-19 -22z"/>
<path d="M9124 2391 c4 -5 1 -12 -4 -14 -6 -3 -5 -4 2 -3 15 3 23 26 8 26 -6
0 -9 -4 -6 -9z"/>
<path d="M9072 2314 c-7 -14 -8 -23 -2 -19 15 9 32 45 22 45 -5 0 -14 -12 -20
-26z"/>
<path d="M8799 2243 c-11 -13 -11 -17 -1 -21 9 -3 10 -7 2 -17 -7 -8 -7 -16
-2 -19 14 -8 24 24 12 39 -6 8 -6 15 2 23 7 7 9 12 6 12 -3 0 -12 -7 -19 -17z"/>
<path d="M8990 2203 c-13 -15 -12 -16 4 -10 10 4 20 7 22 7 2 0 4 5 4 10 0 15
-13 12 -30 -7z"/>
<path d="M8968 2173 c7 -3 16 -2 19 1 4 3 -2 6 -13 5 -11 0 -14 -3 -6 -6z"/>
<path d="M8936 2124 c-5 -14 -4 -15 9 -4 17 14 19 20 6 20 -5 0 -12 -7 -15
-16z"/>
<path d="M8902 2091 c3 -16 -15 -40 -26 -34 -6 3 -8 2 -3 -2 4 -5 -1 -17 -10
-28 -10 -11 -13 -17 -6 -14 24 14 72 84 58 84 -8 0 -13 -3 -13 -6z"/>
<path d="M8767 2013 c-3 -5 1 -16 8 -26 10 -15 14 -15 18 -3 6 16 -18 42 -26
29z"/>
<path d="M8803 1963 c0 -9 4 -10 14 -2 7 6 13 12 13 14 0 1 -6 2 -13 2 -8 0
-14 -6 -14 -14z"/>
<path d="M8691 1956 c-7 -8 -8 -17 -3 -20 6 -3 12 3 15 14 6 24 4 25 -12 6z"/>
<path d="M8669 1826 c0 -1 -3 -12 -5 -25 -2 -14 -3 -23 -2 -20 2 2 11 13 21
25 14 17 15 21 2 21 -8 0 -15 -1 -16 -1z"/>
<path d="M1943 1604 c3 -4 -5 -16 -19 -26 -29 -23 -27 -41 4 -43 17 -1 19 2
11 16 -5 10 -9 20 -9 23 0 10 28 7 35 -4 4 -6 -1 -7 -11 -3 -11 4 -15 2 -11
-4 4 -6 15 -13 26 -16 19 -5 19 -3 3 29 -8 19 -20 34 -26 34 -5 0 -6 -3 -3 -6z"/>
<path d="M1803 1523 c-9 -3 -7 -11 7 -25 14 -15 17 -25 10 -33 -10 -12 2 -24
165 -164 16 -14 24 -19 17 -10 -6 9 -8 19 -4 23 4 4 0 6 -8 4 -8 -2 -14 4 -15
12 0 8 -8 14 -16 12 -9 -1 -23 5 -30 14 -12 15 -11 16 11 10 22 -6 23 -5 7 5
-11 6 -26 12 -35 14 -10 1 -16 7 -15 13 1 5 -5 9 -15 8 -9 0 -16 5 -14 12 1 6
-3 11 -10 10 -7 -2 -12 10 -13 30 0 21 -6 37 -18 43 -9 6 -15 14 -12 20 7 10
6 10 -12 2z m34 -68 c0 -8 -4 -12 -9 -9 -5 3 -6 10 -3 15 9 13 12 11 12 -6z"/>
<path d="M2003 1506 c3 -8 -1 -17 -9 -20 -8 -3 -14 -10 -14 -16 0 -6 8 -4 17
5 16 16 17 16 30 0 7 -10 10 -22 7 -27 -3 -5 0 -7 7 -6 7 2 18 -7 24 -19 5
-13 13 -23 18 -23 4 0 5 -4 2 -10 -3 -5 0 -7 8 -4 12 4 9 11 -10 32 -14 15
-37 44 -51 65 -25 38 -39 48 -29 23z"/>
<path d="M1870 1453 c8 -4 21 -13 28 -22 11 -14 11 -13 2 7 -6 12 -18 22 -28
21 -14 0 -14 -2 -2 -6z"/>
<path d="M2223 1285 c0 -8 4 -15 9 -15 4 0 8 4 8 9 0 6 -4 12 -8 15 -5 3 -9
-1 -9 -9z"/>
<path d="M2020 1277 c0 -2 6 -10 14 -16 11 -9 16 -9 22 1 4 7 4 10 -1 6 -4 -4
-14 -3 -22 3 -7 6 -13 9 -13 6z"/>
<path d="M2247 1259 c-4 -15 -2 -18 7 -10 7 6 17 7 22 3 4 -4 2 1 -5 11 -17
21 -18 21 -24 -4z"/>
<path d="M2079 1227 c29 -32 30 -32 27 -9 -2 9 -7 17 -12 17 -5 0 -16 4 -24 9
-8 5 -4 -3 9 -17z"/>
<path d="M2313 1228 c22 -20 25 -26 15 -38 -11 -12 -10 -12 5 -1 22 17 22 16
-15 41 l-33 22 28 -24z"/>
<path d="M2154 1172 c4 -6 28 -26 53 -43 60 -42 49 -24 -13 21 -26 18 -44 28
-40 22z"/>
<path d="M2400 1176 c0 -3 9 -10 20 -16 11 -6 20 -8 20 -6 0 3 -9 10 -20 16
-11 6 -20 8 -20 6z"/>
<path d="M2320 1057 c0 -3 15 -16 33 -28 17 -13 26 -16 20 -8 -7 9 -9 20 -5
24 4 5 1 5 -6 1 -7 -4 -19 -2 -27 4 -8 7 -15 10 -15 7z"/>
<path d="M3040 1050 c-9 -6 -10 -10 -3 -10 6 0 15 5 18 10 8 12 4 12 -15 0z"/>
<path d="M2530 916 c0 -3 9 -10 20 -16 11 -6 20 -8 20 -6 0 3 -9 10 -20 16
-11 6 -20 8 -20 6z"/>
<path d="M2620 866 c0 -2 8 -10 18 -17 15 -13 16 -12 3 4 -13 16 -21 21 -21
13z"/>
<path d="M2746 788 c3 -5 10 -6 15 -3 13 9 11 12 -6 12 -8 0 -12 -4 -9 -9z"/>
<path d="M2890 716 c0 -3 9 -10 20 -16 11 -6 20 -8 20 -6 0 3 -9 10 -20 16
-11 6 -20 8 -20 6z"/>
<path d="M3330 516 c0 -2 7 -7 16 -10 8 -3 12 -2 9 4 -6 10 -25 14 -25 6z"/>
<path d="M3397 489 c7 -7 15 -10 18 -7 3 3 -2 9 -12 12 -14 6 -15 5 -6 -5z"/>
<path d="M3460 466 c0 -2 7 -7 16 -10 8 -3 12 -2 9 4 -6 10 -25 14 -25 6z"/>
<path d="M3535 440 c3 -5 8 -10 11 -10 2 0 4 5 4 10 0 6 -5 10 -11 10 -5 0 -7
-4 -4 -10z"/>
<path d="M3778 363 c7 -3 16 -2 19 1 4 3 -2 6 -13 5 -11 0 -14 -3 -6 -6z"/>
<path d="M3928 323 c7 -3 16 -2 19 1 4 3 -2 6 -13 5 -11 0 -14 -3 -6 -6z"/>
<path d="M4048 293 c6 -2 18 -2 25 0 6 3 1 5 -13 5 -14 0 -19 -2 -12 -5z"/>
<path d="M4198 263 c7 -3 16 -2 19 1 4 3 -2 6 -13 5 -11 0 -14 -3 -6 -6z"/>
<path d="M4358 233 c7 -3 16 -2 19 1 4 3 -2 6 -13 5 -11 0 -14 -3 -6 -6z"/>
<path d="M4428 223 c7 -3 16 -2 19 1 4 3 -2 6 -13 5 -11 0 -14 -3 -6 -6z"/>
<path d="M5598 223 c6 -2 18 -2 25 0 6 3 1 5 -13 5 -14 0 -19 -2 -12 -5z"/>
<path d="M4498 213 c7 -3 16 -2 19 1 4 3 -2 6 -13 5 -11 0 -14 -3 -6 -6z"/>
<path d="M5458 203 c6 -2 18 -2 25 0 6 3 1 5 -13 5 -14 0 -19 -2 -12 -5z"/>
<path d="M5313 193 c9 -2 25 -2 35 0 9 3 1 5 -18 5 -19 0 -27 -2 -17 -5z"/>
<path d="M4848 183 c7 -3 16 -2 19 1 4 3 -2 6 -13 5 -11 0 -14 -3 -6 -6z"/>
<path d="M4938 183 c7 -3 16 -2 19 1 4 3 -2 6 -13 5 -11 0 -14 -3 -6 -6z"/>
</g>
</svg>
